<?xml version="1.0" standalone="no"?>
<!DOCTYPE svg PUBLIC "-//W3C//DTD SVG 1.1//EN" "http://www.w3.org/Graphics/SVG/1.1/DTD/svg11.dtd" >
<svg xmlns="http://www.w3.org/2000/svg">
<metadata>Generated by IcoMoon</metadata>
<defs>
<font id="iconoset" horiz-adv-x="1024">
<font-face units-per-em="1024" ascent="960" descent="-64" />
<missing-glyph horiz-adv-x="1024" />
<glyph unicode="&#x20;" horiz-adv-x="512" d="" />
<glyph unicode="&#xe900;" glyph-name="airplay" d="M358.811-64h-1.43c-16.885 1.595-28.654 8.141-37.069 19.196l-128.973 171.996-171.982 129.038c-9.79 5.995-17.38 18.701-19.14 33.497-1.265 12.816 3.025 25.907 12.375 36.742l67.759 68.644c8.91 8.801 21.285 13.751 34.044 13.751 3.135 0 8.14 0 13.64-1.925l119.128-32.562 145.362 145.484-323.009 177.386c-12.54 7.095-21.505 19.416-24.365 33.937-2.035 16.666 3.19 31.682 13.2 41.693l88.713 88.831c14.080 12.431 31.349 16.336 46.199 11.936l446.427-106.652 100.978 101.041c54.119 54.123 132.108 91.966 189.692 91.966 28.16 0 51.754-8.746 68.309-25.302 27.72-27.777 32.889-73.485 14.52-128.818-15.125-45.213-45.539-93.616-81.234-129.368l-101.748-101.811 107.853-469.455c4.4-17.326-2.255-36.577-17.215-48.403l-89.483-67.159c-6.985-5.775-17.435-9.241-28.38-9.241-2.035 0-6.215 0-11.495 1.54-14.19 3.465-25.465 12.596-31.129 25.302l-176.382 321.055-145.472-145.374 32.999-120.458c4.29-15.896 0.33-32.342-11.165-45.103l-67.649-67.654c-8.745-8.801-21.010-13.751-33.879-13.751zM52.521 294.733l177.372-134.099 129.358-172.546 62.754 62.759-40.149 147.189 214.111 214.294 208.391-379.359 83.984 62.979-113.848 494.921 121.823 121.723c30.304 30.417 55.989 71.285 68.749 109.457 11.715 35.037 10.835 63.694-2.255 76.73-6.875 6.93-17.71 10.396-32.339 10.396-44.494 0-109.118-32.397-153.832-77.005l-121.273-121.283-473.927 113.307-84.204-84.32 379.218-208.078-214.221-214.239-146.957 40.153-62.754-62.979z" />
<glyph unicode="&#xe901;" glyph-name="airplay1" d="M358.811-64h-1.43c-16.885 1.595-28.654 8.141-37.069 19.196l-128.973 171.996-171.982 129.038c-9.79 5.995-17.38 18.701-19.14 33.497-1.265 12.816 3.025 25.907 12.375 36.742l67.759 68.644c8.91 8.801 21.285 13.751 34.044 13.751 3.135 0 8.14 0 13.64-1.925l119.128-32.562 145.362 145.484-323.009 177.386c-12.54 7.095-21.505 19.416-24.365 33.937-2.035 16.666 3.19 31.682 13.2 41.693l88.713 88.831c14.080 12.431 31.349 16.336 46.199 11.936l446.427-106.652 100.978 101.041c54.119 54.123 132.108 91.966 189.692 91.966 28.16 0 51.754-8.746 68.309-25.302 27.72-27.777 32.889-73.485 14.52-128.818-15.125-45.213-45.539-93.616-81.234-129.368l-101.748-101.811 107.853-469.455c4.4-17.326-2.255-36.577-17.215-48.403l-89.483-67.159c-6.985-5.775-17.435-9.241-28.38-9.241-2.035 0-6.215 0-11.495 1.54-14.19 3.465-25.465 12.596-31.129 25.302l-176.382 321.055-145.472-145.374 32.999-120.458c4.29-15.896 0.33-32.342-11.165-45.103l-67.649-67.654c-8.745-8.801-21.010-13.751-33.879-13.751z" />
<glyph unicode="&#xe902;" glyph-name="alien" d="M512.002 960c-247.017 0-448.003-190.148-448.003-416 0-241.675 192.376-608 447.999-608 255.627 0 448.003 366.326 448.003 608 0.004 225.852-200.983 416-447.999 416zM512.002 31.998c-183.994 0-352.001 307.2-352.001 512.002 0 176.624 168.010 320.002 352.001 320.002 183.969 0 352.001-143.377 352.001-320.002 0-204.801-168.032-512.002-352.001-512.002zM233.586 535.204c-33.255-34.831 32.028-203.908 77.279-260.565 49.814-62.365 123.843-145.126 153.446-103.182 25.924 36.727 23.371 197.185-46.631 269.948-50.050 52.074-150.861 128.638-184.094 93.799zM790.414 535.204c-33.233 34.835-134.041-41.726-184.091-93.799-70.006-72.767-72.559-233.222-46.631-269.948 29.6-41.94 103.633 40.817 153.446 103.182 45.251 56.658 110.534 225.734 77.276 260.565z" />
<glyph unicode="&#xe903;" glyph-name="alien1" d="M468.184-60.413c-60.050 13.32-117.659 48.978-173.875 107.621-93.171 97.194-170.469 247.434-202.166 392.94-10.763 49.408-12.916 69.944-12.889 122.965 0.028 55.668 2.127 69.819 16.921 114.090 48.043 143.762 188.385 254.496 353.988 279.305 31.323 4.693 91.733 4.65 122.965-0.087 186.85-28.338 337.525-164.59 366.921-331.797 9.843-55.986 4.093-131.315-16.1-210.926-45.659-180.011-154.5-353.219-270.434-430.363-24.804-16.505-61.19-33.675-85.687-40.435-27.834-7.681-73.16-9.188-99.644-3.313zM444.231 97.082c29.424 17.65 36.678 127.292 14.301 216.163-16.313 64.789-35.941 100.131-78.934 142.13-67.78 66.211-143.262 111.979-184.681 111.979-12.25 0-26.497-6.956-31.791-15.522-10.914-17.659-10.261-53.247 1.883-102.708 15.633-63.668 51.855-149.241 83.22-196.603 14.691-22.184 52.085-66.597 80.952-96.146 38.155-39.057 62.008-56.823 84.026-62.583 13.104-3.428 21.268-2.562 31.024 3.29zM620.569 97.996c18.603 8.273 37.807 23.327 67.177 52.661 32.142 32.101 68.324 74.8 85.898 101.368 30.254 45.738 64.135 123.574 81.329 186.842 11.714 43.102 15.134 84.544 8.525 103.278-11.76 33.331-50.398 33.272-108.816-0.166-45.824-26.229-110.874-79.972-138.699-114.591-42.665-53.082-67.884-145.902-64.453-237.219 1.352-35.995 5.377-58.869 13.31-75.654 6.077-12.859 10.583-17.288 21.356-20.991 9.884-3.398 19.486-2.149 34.375 4.472v0z" />
<glyph unicode="&#xe904;" glyph-name="anchor" d="M512 964.312c-101.881 0-184.5-77.524-184.5-175.188 0-65.729 39.583-120.615 96.313-150.063v-548.187c-92.941 27.014-168.465 93.669-200 178.562l37.5 10.812-4.437-0.625c7.446 0 13.239 3.107 17.625 7.25s8 9.956 8 17.875c0 2.274 0.267 5.902-1.313 11.125s-6.555 11.791-12.687 14.687l1.687-0.938-151.625 95.5 2.438-1.875c-10.148 9.587-18.156 6.625-20.562 6.625-6.242 0-9.818-1.635-14.188-4.938s-9.062-9.956-9.062-17.875l1.75 7.313-79.313-154.438c-0.021-0.038-0.042-0.086-0.062-0.125v-0.064c-2.183-4.175-3.625-8.73-3.625-13.875 0-5.215 1.739-11.644 6.812-16.438 8.684-8.205 20.656-8.938 23.062-8.938h2.125l47.438 13.062c62.557-178.486 238.117-301.874 436.625-301.874s374.068 123.388 436.625 301.875l47.438-13.062h2.125c2.407 0 14.378 0.732 23.062 8.938 5.074 4.794 6.813 11.222 6.813 16.438 0 5.145-1.442 9.7-3.625 13.875v0.064l-79.375 154.562 1.75-7.313c0 7.919-4.693 14.572-9.062 17.875s-7.946 4.938-14.188 4.938c-2.407 0-10.415 2.962-20.562-6.625l2.437 1.875-149.938-94.562c-6.132-2.897-11.108-9.465-12.687-14.687s-1.313-8.851-1.313-11.125c0-7.919 3.614-13.732 8-17.875s10.179-7.25 17.625-7.25l-4.438 0.625 37.5-10.812c-31.535-84.894-107.059-151.549-200-178.562v548.187c56.729 29.447 96.313 84.334 96.313 150.063 0 97.664-82.619 175.188-184.5 175.188zM512 932.312c85.86 0 152.5-63.471 152.5-143.188 0-57.224-34.267-105.952-86.625-128.625l-9.688-4.125v-608.062l19.5 4.312c118.49 26.201 216.974 111.67 250.125 222.5l4.625 15.5-62.188 17.875 138.438 87.187 72.188-140.562-61.188 16.875-4.562-14.875c-53.169-172.546-222.516-293.438-413.125-293.438s-359.956 120.891-413.125 293.438l-4.563 14.875-61.188-16.875 72.188 140.562 138.438-87.187-62.188-17.875 4.625-15.5c33.151-110.83 131.635-196.299 250.125-222.5l19.5-4.312v608.062l-9.688 4.125c-52.358 22.673-86.625 71.401-86.625 128.625 0 79.716 66.64 143.188 152.5 143.188zM512 873.312c-48.625 0-88.187-36.894-88.187-84.188s39.563-84.25 88.187-84.25c48.625 0 88.187 36.957 88.187 84.25s-39.563 84.188-88.187 84.188zM512 841.312c33.211 0 56.187-22.161 56.187-52.188s-22.976-52.25-56.187-52.25c-33.211 0-56.187 22.224-56.187 52.25s22.976 52.188 56.187 52.188zM99.062 400l1.125-1.062 1.187-0.812c-0.47-0.032-0.243-0.25-0.938-0.25 2.407 0 3.959-2.915-1.375 2.125zM924.938 400c-5.334-5.039-3.782-2.125-1.375-2.125-0.707 0-0.462 0.278-0.938 0.314l1.188 0.75 1.125 1.062z" />
<glyph unicode="&#xe905;" glyph-name="anchor1" d="M512 964.312c-101.881 0-184.5-77.524-184.5-175.188 0-65.729 39.583-120.615 96.313-150.063v-548.187c-92.941 27.014-168.465 93.669-200 178.562l37.5 10.812-4.437-0.625c7.446 0 13.239 3.107 17.625 7.25s8 9.956 8 17.875c0 2.274 0.267 5.902-1.312 11.125s-6.555 11.791-12.688 14.687l1.688-0.938-151.625 95.5 2.438-1.875c-10.148 9.587-18.156 6.625-20.562 6.625-6.242 0-9.818-1.635-14.188-4.938s-9.062-9.956-9.062-17.875l1.75 7.313-79.313-154.438c-0.021-0.038-0.042-0.087-0.063-0.125v-0.062c-2.183-4.175-3.625-8.73-3.625-13.875 0-5.215 1.739-11.644 6.812-16.438 8.684-8.205 20.656-8.938 23.062-8.938h2.125l47.438 13.062c62.557-178.486 238.117-301.875 436.625-301.875s374.068 123.388 436.625 301.875l47.438-13.062h2.125c2.407 0 14.378 0.732 23.062 8.938 5.074 4.794 6.813 11.222 6.813 16.438 0 5.145-1.442 9.7-3.625 13.875v0.062l-79.375 154.562 1.75-7.313c0 7.919-4.693 14.572-9.062 17.875s-7.946 4.938-14.188 4.938c-2.407 0-10.415 2.962-20.562-6.625l2.438 1.875-149.938-94.562c-6.132-2.897-11.108-9.465-12.687-14.687s-1.313-8.851-1.313-11.125c0-7.919 3.614-13.732 8-17.875s10.179-7.25 17.625-7.25l-4.438 0.625 37.5-10.812c-31.535-84.894-107.059-151.549-200-178.562v548.187c56.729 29.447 96.313 84.334 96.313 150.063 0 97.664-82.619 175.188-184.5 175.188zM512.25 886.562c53.469-0.005 96.813-42.447 96.813-94.801 0-0.004 0-0.008 0-0.012s0-0.007 0-0.011c0-52.354-43.343-94.796-96.812-94.801-53.47 0.005-96.813 42.447-96.813 94.801 0 0.004 0 0.008 0 0.012 0 0.003 0 0.007 0 0.011 0 52.354 43.343 94.796 96.812 94.801z" />
<glyph unicode="&#xe906;" glyph-name="anonimous" d="M604.749 836.301c9.629-7.001 31.406-6.315 43.906 8.689 7.062 8.5 68.189 72.609 154 72.609 110.19 0 151.193-36.873 151.193-36.873-39.194 70.621-123.849 79.274-148.439 79.274-119.69 0-188.001-57.076-205.783-81.294-17.811-24.222-3.658-35.997 5.124-42.405zM943.997 640.001c-15.358 0-16.001-25.116-16.001-31.999-0.007-45.011-25.431-88.871-48.001-111.999-64.935-66.537-171.278-8.095-171.278-8.095-17.939 7.252 1.591-10.734 1.591-10.734 10.216-10.591 39.469-43.17 96.874-50.482-2.657-2.811-71.407-74.686-71.407-74.686h-63.998l-63.998 95.998c-17.003-22.499-31.999-31.999-64.002-31.999-17.557 0-37.499 3.004-51.501 18.497-13.155 14.55-12.497 33.705-12.497 45.501-0.064 48.004 0 170.126 0 191.999v55.005c0 27.998-31.434 53.811-31.434 53.811-37.313 25.595-63.72-32.064-63.72-32.064l-0.408-0.311c-30.687 11.153-63.13 17.968-97.253 17.968-41.782 0-90.688-4.595-127.189-20.75 0 9.122 0 22.345 0 22.345 0 229.326 247.376 78.906 282.218 66.466 32.503-11.56 25.938 25.799 20.282 32.031-77.994 86-210.493 93.498-210.493 93.498-181.186 0-187.78-177.435-187.78-255.997v-166.407c0-202.923 258.844-552.189 419.687-578.779-0.78-0.372 17.092-4.595 24.279-9.812 0.279-0.19 0.747 0 1.001-0.157 9.25-7.716 20.904-12.848 33.994-12.848 12.722 0 23.911 4.938 32.972 12.19 0 0 11.31 6.533 27.937 11.875 18.998 5.035 51.533 24.78 71.751 40.999 82.034 65.797 164.813 167.609 222.346 314.407 0 0 7.72 34.531-2.188 36.53-8.814 1.784-14.657-0.125-38.468-42.937-90.877-163.422-217.036-274.062-281.532-277.066v128.004c40.813 6.283 113.501 38.596 162.596 83.189 31.999 29.096-25.438 22.47-34.595 18.748-39.219-15.812-47.157-37.935-160.003-37.935-107.622 0-171.903 45.344-191.999 63.998 59.5 0 128 0 128 0l63.998 64.002 64.002-64.002c0 0 75.28 0 128 0l116.404 138.188c97.782 8.657 107.812 121.929 107.812 133.811 0 24.751 0 24.276 0 48.001 0 7.548-0.257 31.999-16.001 31.999zM353.264 217.9c85.925-54.069 130.382-53.79 158.516-57.895v-128c-151.607 38.725-160.189 148.439-158.516 185.895zM404.122 553.597c-23.875-105.595-143.28-105.595-143.28-105.595-70.842 0-101.061 36.315-101.061 132.316v142.357c36.501-16.187 85.406-29.95 127.189-29.95 36.969 0 72.065 7.623 104.973 20.596 0.093 0 0.182-0.032 0.182-0.032 12.097 0 18.844-9.469 18.844-9.469s19.749-32.475-6.848-150.224zM632.096 729.566c42.558-22.842 89.812-36.844 140.34-36.844 50.593 0 97.811 13.999 140.408 36.844-42.598 22.845-89.815 36.844-140.408 36.844-50.532 0-97.782-13.999-140.34-36.844z" />
<glyph unicode="&#xe907;" glyph-name="arroba" d="M565.062 960c-55.192-0.001-107.559-6.686-156.938-20.188v-0.062c-48.821-13.455-94.188-32.485-135.875-57.188v-0.062h-0.062c-41.281-24.692-78.374-54.444-111.188-89.188-32.778-34.707-60.577-73.3-83.312-115.688s-40.224-88.207-52.5-137.312v-0.064l-0.062-0.064c-11.914-49.195-17.813-100.474-17.813-153.687 0-64.893 9.958-124.992 30.125-180.062l0.062-0.064v-0.064c20.557-55.078 50.605-102.95 90-143.125l0.062-0.064c39.821-40.212 88.464-71.382 145.313-93.438 57.556-22.556 122.884-33.687 195.625-33.687 42.295 0 82.245 3.234 119.875 9.75 37.33 6.095 71.989 14.137 103.875 24.125 31.584 9.894 60.248 20.937 86.063 33.25l0.25 0.125c25.757 11.753 48.26 23.357 67.562 34.938l12.625 7.563-44.75 91.062-14.625-8c-16.083-8.772-35.272-18.377-57.5-28.75l-0.064-0.064h-0.125c-21.634-10.456-46.353-20.147-74.187-28.938-27.673-8.739-58.285-16.053-91.75-21.938l-0.064-0.064h-0.064c-32.971-6.159-68.687-9.25-107.125-9.25-57.498 0-107.847 8.72-151.312 25.812h-0.062c-43.369 17.211-79.44 40.83-108.812 70.875l-0.062 0.064c-0.020 0.020-0.043 0.042-0.062 0.064-29.054 30.518-51.231 66.794-66.62 109.383-15.41 42.645-23.188 89.348-23.187 140.5 0 41.932 4.395 82.729 13.125 122.375 8.726 39.996 21.62 77.329 38.625 112.062s37.941 66.465 62.875 95.375c25.17 29.125 54.231 54.105 87.375 75 33.045 20.832 69.943 37.028 110.875 48.625 41.101 11.537 86.053 17.374 134.938 17.375 56.819-0.001 106.272-8.379 148.625-24.75 42.722-16.516 77.9-39.049 106.125-67.625l0.064-0.062c28.69-28.692 50.212-62.539 64.813-102.063v-0.062l0.064-0.062c14.995-39.632 22.499-82.512 22.5-129.063-0.001-40.828-4.158-78.499-12.438-113.062v-0.064l-0.064-0.064c-7.956-34.714-19.050-64.516-33.125-89.5l-0.064-0.064v-0.125c-13.725-24.986-29.725-44.032-47.875-57.813-17.449-13.168-35.167-19.25-54.938-19.25-10.91 0-16.904 2.736-21.938 7.938-4.095 4.551-7.563 13.341-7.562 28.875-0.001 17.362 1.6 37.048 4.875 58.875 3.283 21.891 8.457 48.484 15.5 79.625v0.064l69.562 303.563h-120.125l-16.812-68.937c-3.104 4.539-5.216 9.812-8.688 14.065-11.131 14.015-24.393 26.006-39.562 35.875l-0.125 0.062c-15.052 10.014-32.373 17.637-51.688 22.875h-0.064c-19.606 5.683-41.227 8.437-64.811 8.438-45.051-0.001-86.654-10.214-123.875-30.625h-0.064v-0.062c-36.309-20.128-67.604-47.069-93.562-80.5-25.919-33.004-45.891-71.257-59.875-114.375v-0.064c-13.609-42.771-20.438-87.533-20.438-134 0-32.349 3.948-62.612 11.875-90.75v-0.064c7.971-27.9 20.076-52.687 36.375-73.875l0.125-0.125 0.062-0.125c16.883-21.001 38.263-37.571 63.5-49.375h0.064l0.064-0.064c26.029-11.982 55.909-17.75 89.188-17.75 28.149 0 54.204 4.18 77.875 12.75l0.064 0.064h0.064c23.333 8.701 44.357 19.875 62.875 33.562l0.064 0.064c18.683 13.913 34.912 29.71 48.562 47.375 3.011 3.872 4.878 7.804 7.687 11.688 0.765-12.174 1.807-24.264 5.562-35.188 4.927-14.335 13.178-27.122 24.25-37.75l0.25-0.25c11.214-10.318 25.181-18.25 41.375-24.062l0.189-0.064 0.25-0.064c17.055-5.543 36.616-8.125 58.813-8.125 38.94 0 75.501 9.835 108.562 29.188 33.191 19.211 61.616 46.036 84.875 79.938 23.225 33.855 41.071 73.901 53.813 119.812 13.181 46.526 19.686 97.407 19.687 152.563-0.001 56.686-8.865 110.729-26.687 161.875-17.932 51.454-45.802 96.971-83.25 136l-0.064 0.062c-37.288 39.227-84.412 70.208-140.818 93.004-57.008 23.036-124.018 34.312-200.813 34.312zM565.062 928.062c73.67-0.001 136.525-10.809 188.813-31.938 52.856-21.361 95.925-49.896 129.75-85.5l0.064-0.062c34.383-35.817 59.63-77.108 76.125-124.438 16.61-47.668 24.936-98.020 24.938-151.375-0.001-52.642-6.232-100.572-18.5-143.875v-0.064c-11.963-43.134-28.513-79.874-49.437-110.375-20.892-30.452-45.656-53.72-74.563-70.438h-0.064c-28.324-16.579-58.766-24.813-92.437-24.813-19.676 0-35.94 2.394-48.813 6.563-12.755 4.626-22.651 10.456-30.062 17.25-7.55 7.295-12.781 15.39-16.062 24.938-3.486 10.139-5.313 21.443-5.313 34.125-0.001 5.26 0.195 11.76 0.563 19.438v0.064c0.369 8.124 0.718 14.375 1.062 18.5l1.437 17.25h-30.25l-4.562-8.438c-8.507-15.95-19.023-32.047-31.625-48.25-11.802-15.273-25.875-29.025-42.375-41.312-15.882-11.739-34.101-21.49-54.875-29.25-19.748-7.15-42-10.875-67-10.875-29.603 0-54.682 5.148-75.813 14.875-21.093 9.88-38.162 23.209-51.937 40.312-13.577 17.692-23.957 38.468-30.937 62.875v0.064c-7.035 24.994-10.625 52.3-10.625 82.061 0 43.362 6.346 84.739 18.938 124.312 12.954 39.91 31.115 74.596 54.562 104.438l0.064 0.064c23.437 30.184 51.269 54.14 83.813 72.188 32.396 17.765 68.212 26.624 108.5 26.625 21.215-0.001 39.937-2.449 56.187-7.188l0.125-0.062h0.189c16.542-4.483 30.578-10.785 42.435-18.689l0.125-0.062 0.064-0.062c12.448-8.075 23.089-17.686 32.125-29.062l0.064-0.125 0.064-0.062c9.204-11.251 16.876-23.692 23.062-37.438l4.25-9.375h26.25l21.875 89.812h55l-60.625-264.563v-0.064c-7.173-31.71-12.487-58.993-15.938-82-3.464-23.089-5.251-44.244-5.25-63.562-0.001-20.295 4.346-37.931 15.938-50.625l0.25-0.25c11.409-11.929 27.804-17.875 45.25-17.875 26.64 0 51.959 8.912 74.187 25.687l0.064 0.064c22.238 16.885 40.98 39.646 56.438 67.75l0.064 0.064c15.849 28.15 27.867 60.815 36.375 97.937 8.917 37.267 13.374 77.405 13.375 120.375-0.001 49.973-8.21 96.82-24.625 140.25-16.101 43.566-40.251 81.616-72.194 113.56-31.648 32.012-70.939 57.035-117.25 74.938-46.73 18.063-100.167 26.874-160.125 26.875-51.427-0.001-99.326-6.146-143.562-18.562h-0.064c-43.634-12.358-83.44-29.8-119.248-52.375-35.726-22.524-67.27-49.616-94.5-81.125-26.719-30.978-49.197-65.12-67.375-102.25-18.179-37.132-31.886-76.902-41.125-119.25-9.237-41.95-13.875-85.033-13.875-129.187 0-54.399 8.345-104.938 25.125-151.375s41.356-86.845 73.625-120.687l0.125-0.128c32.726-33.515 72.933-59.679 120.063-78.375h0.062c47.849-18.826 102.307-28.062 163.062-28.062 40.162 0 77.786 3.246 112.938 9.812 34.599 6.089 66.508 13.723 95.687 22.938 28.968 9.148 55.021 19.288 78.25 30.5 16.976 7.922 30.672 15.052 44.375 22.188l16.937-34.438c-15.551-8.757-31.637-17.575-51.625-26.688l-0.25-0.128c-24.282-11.597-51.673-22.211-82.125-31.75-30.248-9.475-63.408-17.18-99.438-23.063h-0.128c-35.681-6.189-73.894-9.312-114.625-9.312-69.491 0-130.704 10.576-183.938 31.438l-0.062 0.064c-53.126 20.606-97.681 49.286-134.185 86.13l-0.062 0.064c-36.17 36.902-63.707 80.642-82.813 131.811v0.064c-18.746 51.212-28.188 107.403-28.188 168.998 0 50.796 5.665 99.474 16.938 146.062 11.678 46.713 28.193 89.979 49.625 129.938 21.431 39.955 47.586 76.208 78.438 108.875 30.804 32.616 65.511 60.474 104.312 83.687 39.16 23.205 81.75 41.191 128 53.938 46.439 12.698 95.895 19.062 148.5 19.062zM524.625 673.688c-34.802-0.001-66.431-8.918-93.438-26.75-0.025-0.016-0.038-0.046-0.064-0.062-26.265-16.987-48.359-39.495-65.938-67.062l-0.064-0.064v-0.064c-17.012-27.299-29.967-58.005-38.938-91.937l-0.064-0.064v-0.064c-8.555-33.442-12.813-67.216-12.812-101.125 0-47 9.097-85.559 29.188-114.625l0.064-0.064v-0.064c20.949-29.678 54.913-44.938 95.625-44.938 28.217 0 55.074 6.438 79.75 19.187 24.087 12.445 45.802 28.981 64.938 49.313 18.994 20.182 35.344 43.256 49.062 69.125 13.679 25.796 24.071 52.678 31.125 80.5v0.064c3.469 13.879 6.569 28.435 9.25 43.75 2.732 15.616 4.187 29.361 4.187 41.5-0.001 20.524-3.561 39.862-10.75 57.625-7.157 17.68-17.702 33.211-31.313 46-13.305 12.855-29.568 22.618-48.185 29.257-18.535 7.123-39.142 10.562-61.625 10.563zM524.625 641.75c19.344-0.001 36.030-2.958 50.375-8.5l0.25-0.064 0.189-0.064c14.965-5.322 27.026-12.72 36.875-22.25l0.189-0.189c10.294-9.651 18.073-21.034 23.625-34.75 5.536-13.678 8.374-28.783 8.375-45.688-0.001-9.571-1.181-21.674-3.687-36-2.561-14.629-5.421-28.493-8.688-41.562-6.421-25.308-15.864-49.657-28.375-73.25-12.483-23.538-27.188-44.254-44.125-62.25-16.798-17.847-35.548-32.052-56.375-42.812-20.24-10.457-41.629-15.625-65.062-15.625-33.359 0-54.458 10.201-69.437 31.375-0.018 0.026-0.045 0.038-0.064 0.064-15.055 21.834-23.438 53.541-23.438 96.313 0 31.176 3.919 62.166 11.813 93.062 8.228 31.126 19.933 58.747 35.062 83.062 15.341 24.058 34.014 43.051 56.375 57.5l0.125 0.064 0.064 0.064c21.625 14.306 46.409 21.5 75.938 21.5z" />
<glyph unicode="&#xe908;" glyph-name="arroba1" d="M565.062 960c-55.192-0.001-107.559-6.686-156.938-20.188v-0.062c-48.821-13.455-94.188-32.485-135.875-57.188v-0.062h-0.062c-41.281-24.692-78.374-54.444-111.188-89.188-32.778-34.707-60.577-73.3-83.312-115.688-22.734-42.386-40.224-88.207-52.5-137.312v-0.063l-0.063-0.062c-11.914-49.195-17.813-100.474-17.813-153.687 0-64.893 9.958-124.992 30.125-180.062l0.062-0.062v-0.062c20.557-55.078 50.605-102.95 90-143.125l0.062-0.062c39.821-40.212 88.464-71.382 145.313-93.438 57.556-22.556 122.884-33.687 195.625-33.687 42.295 0 82.245 3.234 119.875 9.75 37.33 6.095 71.989 14.137 103.875 24.125 31.584 9.894 60.248 20.937 86.063 33.25l0.25 0.125c25.757 11.753 48.26 23.357 67.562 34.938l12.625 7.563-44.75 91.062-14.625-8c-16.083-8.772-35.272-18.377-57.5-28.75l-0.062-0.062h-0.125c-21.634-10.456-46.353-20.147-74.187-28.938-27.673-8.739-58.285-16.053-91.75-21.938l-0.063-0.062h-0.062c-32.971-6.159-68.687-9.25-107.125-9.25-57.498 0-107.847 8.72-151.312 25.812h-0.063c-43.364 17.222-79.44 40.83-108.812 70.875l-0.062 0.062c0 0-0.062 0.062-0.062 0.062-29.058 30.507-51.236 66.786-66.625 109.375-15.41 42.645-23.188 89.348-23.187 140.5 0 41.932 4.395 82.729 13.125 122.375 8.726 39.996 21.62 77.329 38.625 112.062s37.941 66.465 62.875 95.375c25.17 29.125 54.231 54.105 87.375 75 33.045 20.832 69.943 37.028 110.875 48.625 41.101 11.537 86.053 17.374 134.938 17.375 56.819-0.001 106.272-8.379 148.625-24.75 42.722-16.516 77.9-39.049 106.125-67.625l0.062-0.062c28.69-28.692 50.212-62.539 64.813-102.063v-0.062l0.062-0.062c14.995-39.632 22.499-82.512 22.5-129.063-0.001-40.828-4.158-78.499-12.438-113.062v-0.062l-0.062-0.062c-7.956-34.714-19.050-64.516-33.125-89.5l-0.063-0.062v-0.125c-13.725-24.986-29.725-44.032-47.875-57.813-17.449-13.168-35.167-19.25-54.938-19.25-10.91 0-16.904 2.736-21.938 7.938-4.095 4.551-7.563 13.341-7.562 28.875-0.001 17.362 1.6 37.048 4.875 58.875 3.283 21.891 8.457 48.484 15.5 79.625v0.062l69.562 303.563h-120.125l-16.812-68.937c-3.104 4.539-5.216 9.809-8.688 14.062-11.131 14.015-24.393 26.006-39.562 35.875l-0.125 0.063c-15.052 10.014-32.373 17.637-51.687 22.875h-0.063c-19.606 5.683-41.228 8.437-64.812 8.438-45.051-0.001-86.654-10.214-123.875-30.625h-0.062v-0.063c-36.309-20.128-67.604-47.069-93.562-80.5-25.919-33.004-45.891-71.257-59.875-114.375v-0.062c-13.609-42.771-20.438-87.533-20.438-134 0-32.349 3.948-62.612 11.875-90.75v-0.062c7.971-27.9 20.076-52.687 36.375-73.875l0.125-0.125 0.062-0.125c16.883-21.001 38.263-37.571 63.5-49.375h0.062l0.062-0.062c26.029-11.982 55.909-17.75 89.188-17.75 28.149 0 54.204 4.18 77.875 12.75l0.062 0.062h0.062c23.333 8.701 44.357 19.875 62.875 33.562l0.062 0.062c18.893 14.070 34.259 30.016 48.25 47 4.43 5.378 5.032 10.189 7.375 15.688 0.513-13.558 2.045-26.762 6.187-38.813 4.927-14.333 13.178-27.121 24.25-37.75l0.25-0.25c11.214-10.318 25.181-18.25 41.375-24.062l0.187-0.062 0.25-0.062c17.055-5.543 36.616-8.125 58.813-8.125 38.94 0 75.501 9.835 108.562 29.188 33.191 19.211 61.616 46.036 84.875 79.938 23.225 33.855 41.071 73.901 53.813 119.812 13.181 46.526 19.686 97.407 19.687 152.563-0.001 56.686-8.865 110.729-26.687 161.875-17.932 51.454-45.802 96.971-83.25 136l-0.063 0.063c-37.288 39.227-84.407 70.205-140.812 93-57.008 23.036-124.018 34.312-200.813 34.312zM528.687 677.438c11.206-0.437 23.067-3.15 34.245-8.219 59.501-26.979 81.566-112.492 59.869-207.247l-22.614-67.659c-0.448-1.016-0.983-2.213-1.526-3.409-51.338-113.224-146.978-181.989-219.915-161.267-4.411 1.254-8.74 2.834-12.97 4.752-66.47 30.139-86.222 133.325-50.434 240.842 4.15 12.469 9.047 24.996 14.705 37.474 46.239 101.977 128.415 167.889 197.574 164.838z" />
<glyph unicode="&#xe909;" glyph-name="arrow1" d="M52.952 352.737v0c0 14.751 2.858 29.101 8.496 42.697 17.407 41.901 57.9 68.945 103.162 68.945h99.24c43.437 281.851 287.833 495.692 577.799 495.621 16.559 0 32.973-0.728 49.169-2.061 38.466-3.254 70.732-31.924 78.488-69.741 7.719-37.38-10.757-76.968-44.63-95.010-128.433-68.509-216.249-188.788-242.785-328.809h92.895c45.299 0 85.773-27.044 103.143-68.945 16.992-40.851 7.393-90.020-24.132-121.618l-305.168-305.133c-21.061-21.078-49.097-32.683-78.938-32.683-29.829 0-57.862 11.605-78.942 32.683l-305.079 305.058c-21.092 21.078-32.718 49.134-32.718 78.996zM802.278 847.309c-231.288-19.197-418.199-206.401-433.24-442.006-1.881-29.251-26.117-51.985-55.424-51.985l-149.6-0.581c0-0.112 0.019-0.29 0.18-0.469l305.095-305.062 305.908 305.062-156.165 1.049c-15.344 0-29.987 6.362-40.488 17.53-10.485 11.207-15.978 25.854-14.931 41.542 11.188 175.773 98.788 333.257 238.664 434.92z" />
<glyph unicode="&#xe90a;" glyph-name="arrow2" d="M52.952 352.737v0c0 14.751 2.858 29.101 8.496 42.697 17.407 41.901 57.9 68.945 103.162 68.945h99.24c43.437 281.851 287.833 495.692 577.799 495.621 16.559 0 32.973-0.728 49.169-2.061 38.466-3.254 70.732-31.924 78.488-69.741 7.719-37.38-10.757-76.968-44.63-95.010-128.433-68.509-216.249-188.788-242.785-328.809h92.895c45.299 0 85.773-27.044 103.143-68.945 16.992-40.851 7.393-90.020-24.132-121.618l-305.168-305.133c-21.061-21.078-49.097-32.683-78.938-32.683-29.829 0-57.862 11.605-78.942 32.683l-305.079 305.058c-21.092 21.078-32.718 49.134-32.718 78.996z" />
<glyph unicode="&#xe90b;" glyph-name="arrow3" d="M416.737-11.048v0c14.751 0 29.101 2.858 42.697 8.496 41.901 17.407 68.945 57.9 68.945 103.162v99.24c281.851 43.437 495.692 287.833 495.621 577.799 0 16.559-0.728 32.973-2.061 49.169-3.254 38.466-31.924 70.732-69.741 78.488-37.38 7.719-76.968-10.757-95.010-44.63-68.509-128.433-188.788-216.249-328.809-242.785v92.895c0 45.299-27.044 85.773-68.945 103.143-40.851 16.992-90.020 7.393-121.618-24.132l-305.133-305.168c-21.078-21.061-32.683-49.097-32.683-78.938 0-29.829 11.605-57.862 32.683-78.942l305.058-305.079c21.078-21.092 49.134-32.718 78.996-32.718zM911.309 738.278c-19.197-231.288-206.401-418.199-442.006-433.24-29.251-1.881-51.985-26.117-51.985-55.424l-0.581-149.6c-0.112 0-0.29 0.019-0.469 0.18l-305.062 305.095 305.062 305.908 1.049-156.165c0-15.344 6.362-29.987 17.53-40.488 11.207-10.485 25.854-15.978 41.542-14.931 175.773 11.188 333.257 98.788 434.92 238.664z" />
<glyph unicode="&#xe90c;" glyph-name="arrow4" d="M416.737-11.048v0c14.751 0 29.101 2.858 42.697 8.496 41.901 17.407 68.945 57.9 68.945 103.162v99.24c281.851 43.437 495.692 287.833 495.621 577.799 0 16.559-0.728 32.973-2.061 49.169-3.254 38.466-31.924 70.732-69.741 78.488-37.38 7.719-76.968-10.757-95.010-44.63-68.509-128.433-188.788-216.249-328.809-242.785v92.895c0 45.299-27.044 85.773-68.945 103.143-40.851 16.992-90.020 7.393-121.618-24.132l-305.133-305.168c-21.078-21.061-32.683-49.097-32.683-78.938 0-29.829 11.605-57.862 32.683-78.942l305.058-305.079c21.078-21.092 49.134-32.718 78.996-32.718z" />
<glyph unicode="&#xe90d;" glyph-name="arrow5" d="M607.263-11.048v0c-14.751 0-29.101 2.858-42.697 8.496-41.901 17.407-68.945 57.9-68.945 103.162v99.24c-281.851 43.437-495.692 287.833-495.621 577.799 0 16.559 0.728 32.973 2.061 49.169 3.254 38.466 31.924 70.732 69.741 78.488 37.38 7.719 76.968-10.757 95.010-44.63 68.509-128.433 188.788-216.249 328.809-242.785v92.895c0 45.299 27.044 85.773 68.945 103.143 40.851 16.992 90.020 7.393 121.618-24.132l305.133-305.168c21.078-21.061 32.683-49.097 32.683-78.938 0-29.829-11.605-57.862-32.683-78.942l-305.058-305.079c-21.078-21.092-49.134-32.718-78.996-32.718zM112.691 738.278c19.197-231.288 206.401-418.199 442.006-433.24 29.251-1.881 51.985-26.117 51.985-55.424l0.581-149.6c0.112 0 0.29 0.019 0.469 0.18l305.062 305.095-305.062 305.908-1.049-156.165c0-15.344-6.362-29.987-17.53-40.488-11.207-10.485-25.854-15.978-41.542-14.931-175.773 11.188-333.257 98.788-434.92 238.664z" />
<glyph unicode="&#xe90e;" glyph-name="arrow6" d="M607.263-11.048v0c-14.751 0-29.101 2.858-42.697 8.496-41.901 17.407-68.945 57.9-68.945 103.162v99.24c-281.851 43.437-495.692 287.833-495.621 577.799 0 16.559 0.728 32.973 2.061 49.169 3.254 38.466 31.924 70.732 69.741 78.488 37.38 7.719 76.968-10.757 95.010-44.63 68.509-128.433 188.788-216.249 328.809-242.785v92.895c0 45.299 27.044 85.773 68.945 103.143 40.851 16.992 90.020 7.393 121.618-24.132l305.133-305.168c21.078-21.061 32.683-49.097 32.683-78.938 0-29.829-11.605-57.862-32.683-78.942l-305.058-305.079c-21.078-21.092-49.134-32.718-78.996-32.718z" />
<glyph unicode="&#xe90f;" glyph-name="arrow7" d="M52.952 543.263v0c0-14.751 2.858-29.101 8.496-42.697 17.407-41.901 57.9-68.945 103.162-68.945h99.24c43.437-281.851 287.833-495.692 577.799-495.621 16.559 0 32.973 0.728 49.169 2.061 38.466 3.254 70.732 31.924 78.488 69.741 7.719 37.38-10.757 76.968-44.63 95.010-128.433 68.509-216.249 188.788-242.785 328.809h92.895c45.299 0 85.773 27.044 103.143 68.945 16.992 40.851 7.393 90.020-24.132 121.618l-305.168 305.133c-21.061 21.078-49.097 32.683-78.938 32.683-29.829 0-57.862-11.605-78.942-32.683l-305.079-305.058c-21.092-21.078-32.718-49.134-32.718-78.996zM802.278 48.691c-231.288 19.197-418.199 206.401-433.24 442.006-1.881 29.251-26.117 51.985-55.424 51.985l-149.6 0.581c0 0.112 0.019 0.29 0.18 0.469l305.095 305.062 305.908-305.062-156.165-1.049c-15.344 0-29.987-6.362-40.488-17.53-10.485-11.207-15.978-25.854-14.931-41.542 11.188-175.773 98.788-333.257 238.664-434.92z" />
<glyph unicode="&#xe910;" glyph-name="arrow8" d="M52.952 543.263v0c0-14.751 2.858-29.101 8.496-42.697 17.407-41.901 57.9-68.945 103.162-68.945h99.24c43.437-281.851 287.833-495.692 577.799-495.621 16.559 0 32.973 0.728 49.169 2.061 38.466 3.254 70.732 31.924 78.488 69.741 7.719 37.38-10.757 76.968-44.63 95.010-128.433 68.509-216.249 188.788-242.785 328.809h92.895c45.299 0 85.773 27.044 103.143 68.945 16.992 40.851 7.393 90.020-24.132 121.618l-305.168 305.133c-21.061 21.078-49.097 32.683-78.938 32.683-29.829 0-57.862-11.605-78.942-32.683l-305.079-305.058c-21.092-21.078-32.718-49.134-32.718-78.996z" />
<glyph unicode="&#xe911;" glyph-name="arrow9" d="M971.048 352.737v0c0 14.751-2.858 29.101-8.496 42.697-17.407 41.901-57.9 68.945-103.162 68.945h-99.24c-43.437 281.851-287.833 495.692-577.799 495.621-16.559 0-32.973-0.728-49.169-2.061-38.466-3.254-70.732-31.924-78.488-69.741-7.719-37.38 10.757-76.968 44.63-95.010 128.433-68.509 216.249-188.788 242.785-328.809h-92.895c-45.299 0-85.773-27.044-103.143-68.945-16.992-40.851-7.393-90.020 24.132-121.618l305.168-305.133c21.061-21.078 49.097-32.683 78.938-32.683 29.829 0 57.862 11.605 78.942 32.683l305.079 305.058c21.092 21.078 32.718 49.134 32.718 78.996zM221.722 847.309c231.288-19.197 418.199-206.401 433.24-442.006 1.881-29.251 26.117-51.985 55.424-51.985l149.6-0.581c0-0.112-0.019-0.29-0.18-0.469l-305.095-305.062-305.908 305.062 156.165 1.049c15.344 0 29.987 6.362 40.488 17.53 10.485 11.207 15.978 25.854 14.931 41.542-11.188 175.773-98.788 333.257-238.664 434.92z" />
<glyph unicode="&#xe912;" glyph-name="arrow10" d="M971.048 352.737v0c0 14.751-2.858 29.101-8.496 42.697-17.407 41.901-57.9 68.945-103.162 68.945h-99.24c-43.437 281.851-287.833 495.692-577.799 495.621-16.559 0-32.973-0.728-49.169-2.061-38.466-3.254-70.732-31.924-78.488-69.741-7.719-37.38 10.757-76.968 44.63-95.010 128.433-68.509 216.249-188.788 242.785-328.809h-92.895c-45.299 0-85.773-27.044-103.143-68.945-16.992-40.851-7.393-90.020 24.132-121.618l305.168-305.133c21.061-21.078 49.097-32.683 78.938-32.683 29.829 0 57.862 11.605 78.942 32.683l305.079 305.058c21.092 21.078 32.718 49.134 32.718 78.996z" />
<glyph unicode="&#xe913;" glyph-name="arrow11" d="M416.737 907.048v0c14.751 0 29.101-2.858 42.697-8.496 41.901-17.407 68.945-57.9 68.945-103.162v-99.24c281.851-43.437 495.692-287.833 495.621-577.799 0-16.559-0.728-32.973-2.061-49.169-3.254-38.466-31.924-70.732-69.741-78.488-37.38-7.719-76.968 10.757-95.010 44.63-68.509 128.433-188.788 216.249-328.809 242.785v-92.895c0-45.299-27.044-85.773-68.945-103.143-40.851-16.992-90.020-7.393-121.618 24.132l-305.133 305.168c-21.078 21.061-32.683 49.097-32.683 78.938 0 29.829 11.605 57.862 32.683 78.942l305.058 305.079c21.078 21.092 49.134 32.718 78.996 32.718zM911.309 157.722c-19.197 231.288-206.401 418.199-442.006 433.24-29.251 1.881-51.985 26.117-51.985 55.424l-0.581 149.6c-0.112 0-0.29-0.019-0.469-0.18l-305.062-305.095 305.062-305.908 1.049 156.165c0 15.344 6.362 29.987 17.53 40.488 11.207 10.485 25.854 15.978 41.542 14.931 175.773-11.188 333.257-98.788 434.92-238.664z" />
<glyph unicode="&#xe914;" glyph-name="arrow12" d="M416.737 907.048v0c14.751 0 29.101-2.858 42.697-8.496 41.901-17.407 68.945-57.9 68.945-103.162v-99.24c281.851-43.437 495.692-287.833 495.621-577.799 0-16.559-0.728-32.973-2.061-49.169-3.254-38.466-31.924-70.732-69.741-78.488-37.38-7.719-76.968 10.757-95.010 44.63-68.509 128.433-188.788 216.249-328.809 242.785v-92.895c0-45.299-27.044-85.773-68.945-103.143-40.851-16.992-90.020-7.393-121.618 24.132l-305.133 305.168c-21.078 21.061-32.683 49.097-32.683 78.938 0 29.829 11.605 57.862 32.683 78.942l305.058 305.079c21.078 21.092 49.134 32.718 78.996 32.718z" />
<glyph unicode="&#xe915;" glyph-name="arrow13" d="M607.263 907.048v0c-14.751 0-29.101-2.858-42.697-8.496-41.901-17.407-68.945-57.9-68.945-103.162v-99.24c-281.851-43.437-495.692-287.833-495.621-577.799 0-16.559 0.728-32.973 2.061-49.169 3.254-38.466 31.924-70.732 69.741-78.488 37.38-7.719 76.968 10.757 95.010 44.63 68.509 128.433 188.788 216.249 328.809 242.785v-92.895c0-45.299 27.044-85.773 68.945-103.143 40.851-16.992 90.020-7.393 121.618 24.132l305.133 305.168c21.078 21.061 32.683 49.097 32.683 78.938 0 29.829-11.605 57.862-32.683 78.942l-305.058 305.079c-21.078 21.092-49.134 32.718-78.996 32.718zM112.691 157.722c19.197 231.288 206.401 418.199 442.006 433.24 29.251 1.881 51.985 26.117 51.985 55.424l0.581 149.6c0.112 0 0.29-0.019 0.469-0.18l305.062-305.095-305.062-305.908-1.049 156.165c0 15.344-6.362 29.987-17.53 40.488-11.207 10.485-25.854 15.978-41.542 14.931-175.773-11.188-333.257-98.788-434.92-238.664z" />
<glyph unicode="&#xe916;" glyph-name="arrow14" d="M607.263 907.048v0c-14.751 0-29.101-2.858-42.697-8.496-41.901-17.407-68.945-57.9-68.945-103.162v-99.24c-281.851-43.437-495.692-287.833-495.621-577.799 0-16.559 0.728-32.973 2.061-49.169 3.254-38.466 31.924-70.732 69.741-78.488 37.38-7.719 76.968 10.757 95.010 44.63 68.509 128.433 188.788 216.249 328.809 242.785v-92.895c0-45.299 27.044-85.773 68.945-103.143 40.851-16.992 90.020-7.393 121.618 24.132l305.133 305.168c21.078 21.061 32.683 49.097 32.683 78.938 0 29.829-11.605 57.862-32.683 78.942l-305.058 305.079c-21.078 21.092-49.134 32.718-78.996 32.718z" />
<glyph unicode="&#xe917;" glyph-name="arrow15" d="M971.048 543.263v0c0-14.751-2.858-29.101-8.496-42.697-17.407-41.901-57.9-68.945-103.162-68.945h-99.24c-43.437-281.851-287.833-495.692-577.799-495.621-16.559 0-32.973 0.728-49.169 2.061-38.466 3.254-70.732 31.924-78.488 69.741-7.719 37.38 10.757 76.968 44.63 95.010 128.433 68.509 216.249 188.788 242.785 328.809h-92.895c-45.299 0-85.773 27.044-103.143 68.945-16.992 40.851-7.393 90.020 24.132 121.618l305.168 305.133c21.061 21.078 49.097 32.683 78.938 32.683 29.829 0 57.862-11.605 78.942-32.683l305.079-305.058c21.092-21.078 32.718-49.134 32.718-78.996zM221.722 48.691c231.288 19.197 418.199 206.401 433.24 442.006 1.881 29.251 26.117 51.985 55.424 51.985l149.6 0.581c0 0.112-0.019 0.29-0.18 0.469l-305.095 305.062-305.908-305.062 156.165-1.049c15.344 0 29.987-6.362 40.488-17.53 10.485-11.207 15.978-25.854 14.931-41.542-11.188-175.773-98.788-333.257-238.664-434.92z" />
<glyph unicode="&#xe918;" glyph-name="arrow16" d="M971.048 543.263v0c0-14.751-2.858-29.101-8.496-42.697-17.407-41.901-57.9-68.945-103.162-68.945h-99.24c-43.437-281.851-287.833-495.692-577.799-495.621-16.559 0-32.973 0.728-49.169 2.061-38.466 3.254-70.732 31.924-78.488 69.741-7.719 37.38 10.757 76.968 44.63 95.010 128.433 68.509 216.249 188.788 242.785 328.809h-92.895c-45.299 0-85.773 27.044-103.143 68.945-16.992 40.851-7.393 90.020 24.132 121.618l305.168 305.133c21.061 21.078 49.097 32.683 78.938 32.683 29.829 0 57.862-11.605 78.942-32.683l305.079-305.058c21.092-21.078 32.718-49.134 32.718-78.996z" />
<glyph unicode="&#xe919;" glyph-name="arrow_down" d="M361.864 912.501c-0.002 26.232 21.265 47.499 47.499 47.499h200.426c13.117 0 24.993-5.316 33.587-13.91s13.912-20.472 13.91-33.587l0.002-212.036h188.827c16.46 0.002 31.753-8.524 40.394-22.512 8.661-13.995 9.456-31.476 2.105-46.198l-334.114-669.47c-8.041-16.111-24.496-26.288-42.499-26.288-18.005-0.002-34.465 10.179-42.499 26.288l-334.116 669.472c-7.351 14.722-6.552 32.203 2.105 46.198s23.936 22.512 40.394 22.512h183.977zM456.861 865.004l-0.002-212.036c0.002-26.232-21.265-47.499-47.499-47.499h-154.684l257.324-515.601 257.324 515.605h-159.534c-13.117 0-24.993 5.316-33.587 13.91s-13.912 20.472-13.91 33.587l-0.002 212.036z" />
<glyph unicode="&#xe91a;" glyph-name="arrow_down1" d="M361.864 912.501c-0.002 26.232 21.265 47.499 47.499 47.499h200.426c13.117 0 24.993-5.316 33.587-13.91s13.912-20.472 13.91-33.587l0.002-212.036h188.827c16.46 0.002 31.753-8.524 40.394-22.512 8.661-13.995 9.456-31.476 2.105-46.198l-334.114-669.47c-8.041-16.111-24.496-26.288-42.499-26.288-18.005-0.002-34.465 10.179-42.499 26.288l-334.116 669.472c-7.351 14.722-6.552 32.203 2.105 46.198s23.936 22.512 40.394 22.512h183.977z" />
<glyph unicode="&#xe91b;" glyph-name="arrow_down_left" d="M910.327 635.716c18.55 18.547 18.55 48.624 0 67.174l-141.722 141.722c-9.275 9.275-21.432 13.914-33.585 13.914s-24.313-4.639-33.585-13.914l-149.933-149.93-133.521 133.521c-11.637 11.641-28.481 16.425-44.482 12.644-16.020-3.771-28.943-15.57-34.155-31.179l-237.133-709.641c-5.706-17.078-1.267-35.91 11.463-48.639 12.73-12.733 31.568-17.173 48.639-11.463l709.644 237.133c15.608 5.212 27.404 18.138 31.178 34.155s-1.007 32.844-12.644 44.482l-130.091 130.091zM809.568 669.305l-149.93-149.933c-18.55-18.547-18.55-48.624 0-67.174l109.378-109.378-546.54-182.629 182.632 546.544 112.808-112.808c9.275-9.275 21.432-13.914 33.585-13.914s24.313 4.639 33.585 13.914l149.933 149.93z" />
<glyph unicode="&#xe91c;" glyph-name="arrow_down_left1" d="M910.327 635.716c18.55 18.547 18.55 48.624 0 67.174l-141.722 141.722c-9.275 9.275-21.432 13.914-33.585 13.914s-24.313-4.639-33.585-13.914l-149.933-149.93-133.521 133.521c-11.637 11.641-28.481 16.425-44.482 12.644-16.020-3.771-28.943-15.57-34.155-31.179l-237.133-709.641c-5.706-17.078-1.267-35.91 11.463-48.639 12.73-12.733 31.568-17.173 48.639-11.463l709.644 237.133c15.608 5.212 27.404 18.138 31.178 34.155s-1.007 32.844-12.644 44.482l-130.091 130.091z" />
<glyph unicode="&#xe91d;" glyph-name="arrow_down_right" d="M113.673 635.716c-18.55 18.547-18.55 48.624 0 67.174l141.722 141.722c9.275 9.275 21.432 13.914 33.585 13.914s24.313-4.639 33.585-13.914l149.933-149.93 133.521 133.521c11.637 11.641 28.481 16.425 44.482 12.644 16.020-3.771 28.943-15.57 34.155-31.179l237.133-709.641c5.706-17.078 1.267-35.91-11.463-48.639-12.73-12.733-31.568-17.173-48.639-11.463l-709.644 237.133c-15.608 5.212-27.404 18.138-31.178 34.155s1.007 32.844 12.644 44.482l130.091 130.091zM214.432 669.305l149.93-149.933c18.55-18.547 18.55-48.624 0-67.174l-109.378-109.378 546.54-182.629-182.632 546.544-112.808-112.808c-9.275-9.275-21.432-13.914-33.585-13.914s-24.313 4.639-33.585 13.914l-149.933 149.93z" />
<glyph unicode="&#xe91e;" glyph-name="arrow_down_right1" d="M113.673 635.716c-18.55 18.547-18.55 48.624 0 67.174l141.722 141.722c9.275 9.275 21.432 13.914 33.585 13.914s24.313-4.639 33.585-13.914l149.933-149.93 133.521 133.521c11.637 11.641 28.481 16.425 44.482 12.644 16.020-3.771 28.943-15.57 34.155-31.179l237.133-709.641c5.706-17.078 1.267-35.91-11.463-48.639-12.73-12.733-31.568-17.173-48.639-11.463l-709.644 237.133c-15.608 5.212-27.404 18.138-31.178 34.155s1.007 32.844 12.644 44.482l130.091 130.091z" />
<glyph unicode="&#xe91f;" glyph-name="arrow_left" d="M976.501 598.136c26.232 0.002 47.499-21.265 47.499-47.499v-200.426c0-13.117-5.316-24.993-13.91-33.587s-20.472-13.912-33.587-13.91l-212.036-0.002v-188.827c0.002-16.46-8.524-31.753-22.512-40.394-13.995-8.661-31.476-9.456-46.198-2.105l-669.47 334.114c-16.111 8.041-26.288 24.496-26.288 42.499-0.002 18.005 10.179 34.465 26.288 42.499l669.472 334.116c14.722 7.351 32.203 6.552 46.198-2.105s22.512-23.936 22.512-40.394v-183.977zM929.004 503.139l-212.036 0.002c-26.232-0.002-47.499 21.265-47.499 47.499v154.684l-515.601-257.324 515.605-257.324v159.534c0 13.117 5.316 24.993 13.91 33.587s20.472 13.912 33.587 13.91l212.036 0.002z" />
<glyph unicode="&#xe920;" glyph-name="arrow_left1" d="M976.501 598.136c26.232 0.002 47.499-21.265 47.499-47.499v-200.426c0-13.117-5.316-24.993-13.91-33.587s-20.472-13.912-33.587-13.91l-212.036-0.002v-188.827c0.002-16.46-8.524-31.753-22.512-40.394-13.995-8.661-31.476-9.456-46.198-2.105l-669.47 334.114c-16.111 8.041-26.288 24.496-26.288 42.499-0.002 18.005 10.179 34.465 26.288 42.499l669.472 334.116c14.722 7.351 32.203 6.552 46.198-2.105s22.512-23.936 22.512-40.394v-183.977z" />
<glyph unicode="&#xe921;" glyph-name="arrow_right" d="M47.499 598.136c-26.232 0.002-47.499-21.265-47.499-47.499v-200.426c0-13.117 5.316-24.993 13.91-33.587s20.472-13.912 33.587-13.91l212.036-0.002v-188.827c-0.002-16.46 8.524-31.753 22.512-40.394 13.995-8.661 31.476-9.456 46.198-2.105l669.47 334.114c16.111 8.041 26.288 24.496 26.288 42.499 0.002 18.005-10.179 34.465-26.288 42.499l-669.472 334.116c-14.722 7.351-32.203 6.552-46.198-2.105s-22.512-23.936-22.512-40.394v-183.977zM94.996 503.139l212.036 0.002c26.232-0.002 47.499 21.265 47.499 47.499v154.684l515.601-257.324-515.605-257.324v159.534c0 13.117-5.316 24.993-13.91 33.587s-20.472 13.912-33.587 13.91l-212.036 0.002z" />
<glyph unicode="&#xe922;" glyph-name="arrow_right1" d="M47.499 598.136c-26.232 0.002-47.499-21.265-47.499-47.499v-200.426c0-13.117 5.316-24.993 13.91-33.587s20.472-13.912 33.587-13.91l212.036-0.002v-188.827c-0.002-16.46 8.524-31.753 22.512-40.394 13.995-8.661 31.476-9.456 46.198-2.105l669.47 334.114c16.111 8.041 26.288 24.496 26.288 42.499 0.002 18.005-10.179 34.465-26.288 42.499l-669.472 334.116c-14.722 7.351-32.203 6.552-46.198-2.105s-22.512-23.936-22.512-40.394v-183.977z" />
<glyph unicode="&#xe923;" glyph-name="arrows_du" d="M394.135 693.287c-12.503-12.306-18.495-23.736-18.495-33.108 0-14.596 14.542-24.219 41.801-24.433l119.931-0.948-1.914-243.367c0-0.215 0-0.429 0-0.644 0-44.502 35.899-80.759 80.49-81.099l162.251-1.27c44.806-0.358 81.403 35.684 81.76 80.49l1.914 243.367 119.931-0.948c27.492-0.215 42.195 9.337 42.195 24.129 0 9.319-5.831 20.713-17.976 33.055l-246.641 250.486c-31.427 31.928-82.798 32.339-114.726 0.894l-250.522-246.605zM708.388 888.807l182.338-185.235-99.862 0.769-2.468-314.915c-0.036-5.277-4.364-9.534-9.641-9.498l-162.251 1.27c-5.241 0.036-9.498 4.329-9.498 9.641l2.468 314.915-99.862 0.804 185.235 182.356c1.878 1.842 4.168 2.772 6.797 2.755 2.629-0.036 4.901-0.984 6.743-2.862zM402.56 587.576l-162.251-1.27c-44.574-0.358-80.49-36.596-80.49-81.099 0-0.215 0-0.429 0-0.644l1.914-243.367-119.931-0.948c-27.259-0.215-41.801-9.856-41.801-24.433 0-9.373 6.010-20.802 18.495-33.108l250.522-246.605c31.928-31.427 83.281-31.034 114.726 0.894l246.623 250.522c12.145 12.342 17.976 23.736 17.976 33.055 0 14.792-14.703 24.344-42.195 24.129l-119.931-0.948-1.914 243.367c-0.34 44.788-36.936 80.812-81.743 80.455zM414.687 263.182l0.554-71.547 99.862 0.769-182.338-185.218c-1.842-1.878-4.114-2.844-6.743-2.862s-4.919 0.912-6.797 2.755l-185.235 182.338 99.862 0.769-2.468 315.004c0 5.223 4.257 9.516 9.498 9.569l162.251 1.27c5.277 0.036 9.605-4.221 9.641-9.498l1.914-243.35z" />
<glyph unicode="&#xe924;" glyph-name="arrows_dud" d="M394.135 693.287c-12.503-12.306-18.495-23.736-18.495-33.108 0-14.596 14.542-24.219 41.801-24.433l119.931-0.948-1.914-244.011c0-44.502 35.899-80.759 80.49-81.099l162.251-1.27c44.806-0.358 81.403 35.684 81.76 80.49l1.914 243.367 119.931-0.948c27.492-0.215 42.195 9.337 42.195 24.129 0 9.319-5.831 20.713-17.976 33.055l-246.641 250.486c-31.427 31.928-82.798 32.339-114.726 0.894zM402.56 587.576l-162.251-1.27c-44.574-0.358-80.49-36.596-80.49-81.099v-0.644l1.914-243.367-119.931-0.948c-27.259-0.215-41.801-9.856-41.801-24.433 0-9.373 6.010-20.802 18.495-33.108l250.522-246.605c31.928-31.427 83.281-31.034 114.726 0.894l246.623 250.522c12.145 12.342 17.976 23.736 17.976 33.055 0 14.792-14.703 24.344-42.195 24.129l-119.931-0.948-1.914 243.367c-0.34 44.788-36.936 80.812-81.743 80.455z" />
<glyph unicode="&#xe925;" glyph-name="arrows_lr" d="M266.713 330.135c12.306-12.503 23.736-18.495 33.108-18.495 14.596 0 24.219 14.542 24.433 41.801l0.948 119.931 243.367-1.914c0.215 0 0.429 0 0.644 0 44.502 0 80.759 35.899 81.099 80.49l1.27 162.251c0.358 44.806-35.684 81.403-80.49 81.76l-243.367 1.914 0.948 119.931c0.215 27.492-9.337 42.195-24.129 42.195-9.319 0-20.713-5.831-33.055-17.976l-250.486-246.641c-31.928-31.427-32.339-82.798-0.894-114.726l246.605-250.522zM71.193 644.388l185.235 182.338-0.215-28.315-0.554-71.547 314.915-2.468c5.277-0.036 9.534-4.364 9.498-9.641l-1.27-162.251c-0.036-5.241-4.329-9.498-9.641-9.498l-314.915 2.468-0.554-71.547-0.25-28.315-182.356 185.235c-1.842 1.878-2.772 4.168-2.755 6.797 0.036 2.629 0.984 4.901 2.862 6.743zM372.424 338.56l1.27-162.251c0.358-44.574 36.596-80.49 81.099-80.49 0.215 0 0.429 0 0.644 0l243.367 1.914 0.948-119.931c0.215-27.259 9.856-41.801 24.433-41.801 9.373 0 20.802 6.010 33.108 18.495l246.605 250.522c31.427 31.928 31.034 83.281-0.894 114.726l-250.522 246.623c-12.342 12.145-23.736 17.976-33.055 17.976-14.792 0-24.344-14.703-24.129-42.195l0.948-119.931-243.367-1.914c-44.788-0.34-80.812-36.936-80.455-81.743zM696.818 350.687l71.547 0.554-0.554 71.547-0.215 28.315 185.218-182.338c1.878-1.842 2.844-4.114 2.862-6.743s-0.912-4.919-2.755-6.797l-182.338-185.235-0.215 28.315-0.554 71.547-315.004-2.468c-5.223 0-9.516 4.257-9.569 9.498l-1.27 162.251c-0.036 5.277 4.221 9.605 9.498 9.641l243.35 1.914z" />
<glyph unicode="&#xe926;" glyph-name="arrows_lrd" d="M757.287 565.865c-12.306 12.503-23.736 18.495-33.108 18.495-14.596 0-24.219-14.542-24.433-41.801l-0.948-119.931-244.011 1.914c-44.502 0-80.759-35.899-81.099-80.49l-1.27-162.251c-0.358-44.806 35.684-81.403 80.49-81.76l243.367-1.914-0.948-119.931c-0.215-27.492 9.337-42.195 24.129-42.195 9.319 0 20.713 5.831 33.055 17.976l250.486 246.641c31.928 31.427 32.339 82.798 0.894 114.726zM651.576 557.44l-1.27 162.251c-0.358 44.574-36.596 80.49-81.099 80.49h-0.644l-243.367-1.914-0.948 119.931c-0.215 27.259-9.856 41.801-24.433 41.801-9.373 0-20.802-6.010-33.108-18.495l-246.605-250.522c-31.427-31.928-31.034-83.281 0.894-114.726l250.522-246.623c12.342-12.145 23.736-17.976 33.055-17.976 14.792 0 24.344 14.703 24.129 42.195l-0.948 119.931 243.367 1.914c44.788 0.34 80.812 36.936 80.455 81.743z" />
<glyph unicode="&#xe927;" glyph-name="arrows_rl" d="M757.287 330.135c-12.306-12.503-23.736-18.495-33.108-18.495-14.596 0-24.219 14.542-24.433 41.801l-0.948 119.931-243.367-1.914c-0.215 0-0.429 0-0.644 0-44.502 0-80.759 35.899-81.099 80.49l-1.27 162.251c-0.358 44.806 35.684 81.403 80.49 81.76l243.367 1.914-0.948 119.931c-0.215 27.492 9.337 42.195 24.129 42.195 9.319 0 20.713-5.831 33.055-17.976l250.486-246.641c31.928-31.427 32.339-82.798 0.894-114.726l-246.605-250.522zM952.807 644.388l-185.235 182.338 0.215-28.315 0.554-71.547-314.915-2.468c-5.277-0.036-9.534-4.364-9.498-9.641l1.27-162.251c0.036-5.241 4.329-9.498 9.641-9.498l314.915 2.468 0.554-71.547 0.25-28.315 182.356 185.235c1.842 1.878 2.772 4.168 2.755 6.797-0.036 2.629-0.984 4.901-2.862 6.743zM651.576 338.56l-1.27-162.251c-0.358-44.574-36.596-80.49-81.099-80.49-0.215 0-0.429 0-0.644 0l-243.367 1.914-0.948-119.931c-0.215-27.259-9.856-41.801-24.433-41.801-9.373 0-20.802 6.010-33.108 18.495l-246.605 250.522c-31.427 31.928-31.034 83.281 0.894 114.726l250.522 246.623c12.342 12.145 23.736 17.976 33.055 17.976 14.792 0 24.344-14.703 24.129-42.195l-0.948-119.931 243.367-1.914c44.788-0.34 80.812-36.936 80.455-81.743zM327.182 350.687l-71.547 0.554 0.554 71.547 0.215 28.315-185.218-182.338c-1.878-1.842-2.844-4.114-2.862-6.743s0.912-4.919 2.755-6.797l182.338-185.235 0.215 28.315 0.554 71.547 315.004-2.468c5.223 0 9.516 4.257 9.569 9.498l1.27 162.251c0.036 5.277-4.221 9.605-9.498 9.641l-243.35 1.914z" />
<glyph unicode="&#xe928;" glyph-name="arrows_rld" d="M266.713 565.865c12.306 12.503 23.736 18.495 33.108 18.495 14.596 0 24.219-14.542 24.433-41.801l0.948-119.931 244.011 1.914c44.502 0 80.759-35.899 81.099-80.49l1.27-162.251c0.358-44.806-35.684-81.403-80.49-81.76l-243.367-1.914 0.948-119.931c0.215-27.492-9.337-42.195-24.129-42.195-9.319 0-20.713 5.831-33.055 17.976l-250.486 246.641c-31.928 31.427-32.339 82.798-0.894 114.726zM372.424 557.44l1.27 162.251c0.358 44.574 36.596 80.49 81.099 80.49h0.644l243.367-1.914 0.948 119.931c0.215 27.259 9.856 41.801 24.433 41.801 9.373 0 20.802-6.010 33.108-18.495l246.605-250.522c31.427-31.928 31.034-83.281-0.894-114.726l-250.522-246.623c-12.342-12.145-23.736-17.976-33.055-17.976-14.792 0-24.344 14.703-24.129 42.195l0.948 119.931-243.367 1.914c-44.788 0.34-80.812 36.936-80.455 81.743z" />
<glyph unicode="&#xe929;" glyph-name="arrows_ud" d="M394.135 202.713c-12.503 12.306-18.495 23.736-18.495 33.108 0 14.596 14.542 24.219 41.801 24.433l119.931 0.948-1.914 243.367c0 0.215 0 0.429 0 0.644 0 44.502 35.899 80.759 80.49 81.099l162.251 1.27c44.806 0.358 81.403-35.684 81.76-80.49l1.914-243.367 119.931 0.948c27.492 0.215 42.195-9.337 42.195-24.129 0-9.319-5.831-20.713-17.976-33.055l-246.641-250.486c-31.427-31.928-82.798-32.339-114.726-0.894l-250.522 246.605zM708.388 7.193l182.338 185.235-99.862-0.769-2.468 314.915c-0.036 5.277-4.364 9.534-9.641 9.498l-162.251-1.27c-5.241-0.036-9.498-4.329-9.498-9.641l2.468-314.915-99.862-0.804 185.235-182.356c1.878-1.842 4.168-2.772 6.797-2.755 2.629 0.036 4.901 0.984 6.743 2.862zM402.56 308.424l-162.251 1.27c-44.574 0.358-80.49 36.596-80.49 81.099 0 0.215 0 0.429 0 0.644l1.914 243.367-119.931 0.948c-27.259 0.215-41.801 9.856-41.801 24.433 0 9.373 6.010 20.802 18.495 33.108l250.522 246.605c31.928 31.427 83.281 31.034 114.726-0.894l246.623-250.522c12.145-12.342 17.976-23.736 17.976-33.055 0-14.792-14.703-24.344-42.195-24.129l-119.931 0.948-1.914-243.367c-0.34-44.788-36.936-80.812-81.743-80.455zM414.687 632.818l0.554 71.547 99.862-0.769-182.338 185.218c-1.842 1.878-4.114 2.844-6.743 2.862s-4.919-0.912-6.797-2.755l-185.235-182.338 99.862-0.769-2.468-315.004c0-5.223 4.257-9.516 9.498-9.569l162.251-1.27c5.277-0.036 9.605 4.221 9.641 9.498l1.914 243.35z" />
<glyph unicode="&#xe92a;" glyph-name="arrows_udd" d="M394.135 202.713c-12.503 12.306-18.495 23.736-18.495 33.108 0 14.596 14.542 24.219 41.801 24.433l119.931 0.948-1.914 244.011c0 44.502 35.899 80.759 80.49 81.099l162.251 1.27c44.806 0.358 81.403-35.684 81.76-80.49l1.914-243.367 119.931 0.948c27.492 0.215 42.195-9.337 42.195-24.129 0-9.319-5.831-20.713-17.976-33.055l-246.641-250.486c-31.427-31.928-82.798-32.339-114.726-0.894zM402.56 308.424l-162.251 1.27c-44.574 0.358-80.49 36.596-80.49 81.099v0.644l1.914 243.367-119.931 0.948c-27.259 0.215-41.801 9.856-41.801 24.433 0 9.373 6.010 20.802 18.495 33.108l250.522 246.605c31.928 31.427 83.281 31.034 114.726-0.894l246.623-250.522c12.145-12.342 17.976-23.736 17.976-33.055 0-14.792-14.703-24.344-42.195-24.129l-119.931 0.948-1.914-243.367c-0.34-44.788-36.936-80.812-81.743-80.455z" />
<glyph unicode="&#xe92b;" glyph-name="arrow_up" d="M662.136-16.501c0.002-26.232-21.265-47.499-47.499-47.499h-200.426c-13.117 0-24.993 5.316-33.587 13.91s-13.912 20.472-13.91 33.587l-0.002 212.036h-188.827c-16.46-0.002-31.753 8.524-40.394 22.512-8.661 13.995-9.456 31.476-2.105 46.198l334.114 669.47c8.041 16.111 24.496 26.288 42.499 26.288 18.005 0.002 34.465-10.179 42.499-26.288l334.116-669.472c7.351-14.722 6.552-32.203-2.105-46.198s-23.936-22.512-40.394-22.512h-183.977zM567.139 30.996l0.002 212.036c-0.002 26.232 21.265 47.499 47.499 47.499h154.684l-257.324 515.601-257.324-515.605h159.534c13.117 0 24.993-5.316 33.587-13.91s13.912-20.472 13.91-33.587l0.002-212.036z" />
<glyph unicode="&#xe92c;" glyph-name="arrow_up1" d="M662.136-16.501c0.002-26.232-21.265-47.499-47.499-47.499h-200.426c-13.117 0-24.993 5.316-33.587 13.91s-13.912 20.472-13.91 33.587l-0.002 212.036h-188.827c-16.46-0.002-31.753 8.524-40.394 22.512-8.661 13.995-9.456 31.476-2.105 46.198l334.114 669.47c8.041 16.111 24.496 26.288 42.499 26.288 18.005 0.002 34.465-10.179 42.499-26.288l334.116-669.472c7.351-14.722 6.552-32.203-2.105-46.198s-23.936-22.512-40.394-22.512h-183.977z" />
<glyph unicode="&#xe92d;" glyph-name="arrow_up_left" d="M910.327 260.284c18.55-18.547 18.55-48.624 0-67.174l-141.722-141.722c-9.275-9.275-21.432-13.914-33.585-13.914s-24.313 4.639-33.585 13.914l-149.933 149.93-133.521-133.521c-11.637-11.641-28.481-16.425-44.482-12.644-16.020 3.771-28.943 15.57-34.155 31.179l-237.133 709.641c-5.706 17.078-1.267 35.91 11.463 48.639 12.73 12.733 31.568 17.173 48.639 11.463l709.644-237.133c15.608-5.212 27.404-18.138 31.178-34.155s-1.007-32.844-12.644-44.482l-130.091-130.091zM809.568 226.695l-149.93 149.933c-18.55 18.547-18.55 48.624 0 67.174l109.378 109.378-546.54 182.629 182.632-546.544 112.808 112.808c9.275 9.275 21.432 13.914 33.585 13.914s24.313-4.639 33.585-13.914l149.933-149.93z" />
<glyph unicode="&#xe92e;" glyph-name="arrow_up_left1" d="M910.327 260.284c18.55-18.547 18.55-48.624 0-67.174l-141.722-141.722c-9.275-9.275-21.432-13.914-33.585-13.914s-24.313 4.639-33.585 13.914l-149.933 149.93-133.521-133.521c-11.637-11.641-28.481-16.425-44.482-12.644-16.020 3.771-28.943 15.57-34.155 31.179l-237.133 709.641c-5.706 17.078-1.267 35.91 11.463 48.639 12.73 12.733 31.568 17.173 48.639 11.463l709.644-237.133c15.608-5.212 27.404-18.138 31.178-34.155s-1.007-32.844-12.644-44.482l-130.091-130.091z" />
<glyph unicode="&#xe92f;" glyph-name="arrow_up_right" d="M113.673 260.284c-18.55-18.547-18.55-48.624 0-67.174l141.722-141.722c9.275-9.275 21.432-13.914 33.585-13.914s24.313 4.639 33.585 13.914l149.933 149.93 133.521-133.521c11.637-11.641 28.481-16.425 44.482-12.644 16.020 3.771 28.943 15.57 34.155 31.179l237.133 709.641c5.706 17.078 1.267 35.91-11.463 48.639-12.73 12.733-31.568 17.173-48.639 11.463l-709.644-237.133c-15.608-5.212-27.404-18.138-31.178-34.155s1.007-32.844 12.644-44.482l130.091-130.091zM214.432 226.695l149.93 149.933c18.55 18.547 18.55 48.624 0 67.174l-109.378 109.378 546.54 182.629-182.632-546.544-112.808 112.808c-9.275 9.275-21.432 13.914-33.585 13.914s-24.313-4.639-33.585-13.914l-149.933-149.93z" />
<glyph unicode="&#xe930;" glyph-name="arrow_up_right1" d="M113.673 260.284c-18.55-18.547-18.55-48.624 0-67.174l141.722-141.722c9.275-9.275 21.432-13.914 33.585-13.914s24.313 4.639 33.585 13.914l149.933 149.93 133.521-133.521c11.637-11.641 28.481-16.425 44.482-12.644 16.020 3.771 28.943 15.57 34.155 31.179l237.133 709.641c5.706 17.078 1.267 35.91-11.463 48.639-12.73 12.733-31.568 17.173-48.639 11.463l-709.644-237.133c-15.608-5.212-27.404-18.138-31.178-34.155s1.007-32.844 12.644-44.482l130.091-130.091z" />
<glyph unicode="&#xe931;" glyph-name="article" d="M213.824 366.176h371.2v-34.752h-371.2v34.752zM213.824 296.928h371.2v-34.752h-371.2v34.752zM213.824 226.112h371.2v-34.72h-371.2v34.72zM624.768 366.976h302.688v-34.752h-302.688v34.752zM624.768 297.76h302.688v-34.816h-302.688v34.816zM624.768 226.976h302.688v-34.784h-302.688v34.784zM252.48 722.944l0.32-2.56-3.904-0.832-0.448-5.504h4.576l6.176 0.64 3.136 3.776-3.328 1.312-1.856 2.112-2.784 4.48-1.344 6.336-5.216-1.056-1.44-2.208v-2.496l2.528-1.76zM248.032 720.8l0.288 3.52-3.040 1.312-4.32-1.056-3.136-5.088v-3.264h3.68zM160.064 706.24l-0.96-2.432h-4.576v-2.336h1.056c0 0 0.064-0.48 0.16-1.152l2.816 0.256 1.76 1.024 0.48 2.208 2.24 0.192 0.864 1.888-2.080 0.416-1.76-0.064zM148.288 701.984l-0.16-2.272 3.296 0.256 0.352 2.304-1.984 1.536zM359.424 697.312c4.416-11.328 7.808-23.168 10.048-35.328h606.56v-533.28h-824.064v299.68c-12.16 1.312-23.968 3.744-35.36 7.168v-342.208h894.816v603.968h-652zM584.992 578.304h-218.048c-2.976-12.064-7.008-23.68-12.064-34.752h230.112v34.752zM584.992 509.056h-250.304c-9.344-12.8-20.064-24.512-32.128-34.784h282.432v34.784zM584.992 438.24h-345.632c-8.32-2.88-16.8-5.44-25.568-7.232v-27.552h371.2v34.784zM327.456 548.064c6.144 12 10.976 24.736 14.144 38.144 0.8 3.392 1.536 6.784 2.144 10.272 1.76 9.856 2.656 19.904 2.656 30.272 0 0.576-0.032 1.184-0.032 1.792-0.032 5.056-0.288 10.112-0.736 15.072-1.632 16.512-5.6 32.32-11.488 47.136h0.192l-0.544 3.008-0.96 0.32c-7.84 18.624-18.912 35.584-32.448 50.24-0.896 0.928-1.824 1.856-2.72 2.816-2.528 2.656-5.184 5.216-7.904 7.712-30.816 28.064-71.712 45.152-116.512 45.152-45.216 0-86.4-17.408-117.344-45.888-7.168-6.624-13.792-13.856-19.744-21.632-22.624-29.216-36.16-65.92-36.16-105.696 0-95.52 77.728-173.28 173.248-173.28 67.168 0 125.504 38.528 154.208 94.56zM14.272 626.784c0 22.048 4.512 43.136 12.672 62.208v-9.024l6.592-3.2v-12.608l6.336-10.816 5.12-0.768 0.704 3.744-6.080 9.344-1.184 9.12h3.552l1.536-9.376 8.736-12.8-2.208-4.16 5.536-8.544 13.888-3.392v2.176l5.568-0.768-0.544-3.936 4.352-0.768 6.72-1.92 9.536-10.816 12.16-0.928 1.184-9.888-8.32-5.888-0.416-8.8-1.184-5.376 12.064-15.104 0.896-5.088c0 0 4.352-1.216 4.864-1.216s9.792-7.040 9.792-7.040v-27.232l3.296-0.896-2.24-12.576 5.568-7.36-0.992-12.48 7.328-12.864 9.44-8.256 9.44-0.16 0.896 3.072-6.976 5.824 0.416 2.912 1.248 3.552 0.288 3.648-4.768 0.128-2.336 3.008 3.936 3.744 0.512 2.848-4.384 1.28 0.256 2.592 6.208 0.96 9.472 4.544 3.168 5.792 9.952 12.704-2.24 9.952 3.008 5.248 9.088-0.288 6.176 4.896 1.984 19.104 6.784 8.608 1.216 5.6-6.272 1.952-4.064 6.752-13.984 0.128-11.136 4.256-0.512 7.936-3.712 6.464-10.048 0.128-5.824 9.152-5.12 2.432-0.256-2.72-9.376-0.608-3.424 4.864-9.792 1.952-8.064-9.344-12.672 2.176-0.96 14.272-9.248 1.6 3.712 6.976-1.056 4.032-12.16-8.096-7.648 0.896-2.752 6.016 1.696 6.144 4.224 7.744 9.664 4.96 18.816 0.032-0.064-5.76 6.72-3.136-0.512 9.792 4.8 4.832 9.824 6.432 0.672 4.576 9.824 10.144 10.4 5.76-0.96 0.768 7.072 6.624 2.528-0.672 1.184-1.472 2.688 2.944 0.672 0.32-2.912 0.384-2.976 1.024v2.848l1.568 1.312h3.456l1.6-0.704 1.344-2.784 1.728 0.256v0.224l0.512-0.16 4.832 0.736 0.704 2.4 2.752-0.704v-2.56l-2.528-1.76 0.352-2.848 8.832-2.72c0 0 0-0.032 0-0.096l2.048 0.192 0.128 3.776-7.008 3.2-0.384 1.792 5.824 2.048 0.256 5.536-6.080 3.712-0.416 9.376-8.32-4.096h-3.040l0.8 7.104-11.328 2.72-4.704-3.552v-10.816l-8.448-2.624-3.392-7.072-3.584-0.576v8.96l-7.936 1.12-3.968 2.592-1.6 5.792 14.176 8.32 6.944 2.080 0.672-4.64 3.872 0.224 0.32 2.304 4.032 0.608 0.064 0.832-1.728 0.672-0.384 2.56 4.96 0.416 3.008 3.136 0.16 0.256h0.032l0.896 0.864 10.4 1.376 4.672-4-12.096-6.4 15.392-3.616 1.984 5.12h6.752l2.4 4.544-4.768 1.088v5.664l-14.912 6.656-10.368-1.184-5.792-3.072 0.416-7.328-6.112 0.864-0.928 4.064 5.856 5.312-10.592 0.544-3.008-0.928-1.344-3.552 3.968-0.64-0.8-4-6.752-0.384-1.056-2.656-9.792-0.288c0 0-0.256 5.568-0.64 5.568-0.416 0 7.616 0.128 7.616 0.128l5.92 5.728-3.2 1.568-4.256-4.128-7.008 0.384-4.224 5.856h-8.96l-9.344-6.976h8.576l0.768-2.56-2.272-2.080 9.536-0.32 1.44-3.36-10.72 0.32-0.48 2.656-6.752 1.472-3.584 1.92h-8c26.208 19.104 58.496 30.4 93.408 30.4 40.192 0 76.896-15.008 104.96-39.68l-1.92-3.392-7.328-2.848-3.072-3.36 0.704-3.904 3.776-0.544 2.272-5.664 6.528 2.56 1.12-7.616h-2.016l-5.344 0.832-5.92-1.056-5.728-8.064-8.288-1.28-1.184-7.072 3.456-0.8-0.928-4.512-8.224 1.6-7.424-1.6-1.632-4.192 1.312-8.736 4.384-2.048 7.36 0.064 5.024 0.384 1.504 3.968 7.808 10.112 5.056-1.056 5.056 4.576 0.928-3.52 12.416-8.384-1.536-2.048-5.568 0.32 2.144-3.104 3.392-0.736 4.064 1.728-0.032 4.832 1.792 0.928-1.44 1.536-8.288 4.544-2.144 6.144h6.848l2.208-2.144 5.952-5.088 0.224-6.208 6.144-6.56 2.24 8.992 4.288 2.272 0.768-7.328 4.16-4.544 8.32 0.128c1.568-4.128 3.072-8.352 4.288-12.64l-0.864-0.8h-12.672l-7.712 5.824-8.128-0.8v-4.992h-2.592l-2.752 2.016-14.112 3.52v9.152l-17.856-1.376-5.536-3.040h-7.072l-3.488 0.384-8.608-4.736v-9.024l-17.568-12.672 1.472-5.408h3.584l-0.96-5.184-2.496-0.896-0.128-13.472 15.2-17.28h6.592l0.416 1.024h11.872l3.424 3.2h6.752l3.712-3.68 10.016-1.056-1.28-13.344 11.136-19.68-5.856-11.296 0.352-5.28 4.672-4.64v-12.672l6.048-8.224v-10.56h5.216c-29.184-35.808-73.6-58.752-123.296-58.752-87.648 0-158.944 71.328-158.944 159.008zM622.733 605.518v-12.172l-0.106-191.284 302.688 0.099-0.106 203.357h-302.473zM649.121 581.225h249.696l0.054-154.72-249.857-0.099 0.106 154.819z" />
<glyph unicode="&#xe933;" glyph-name="atom" d="M830.56 448.896c124.672 106.88 188.16 210.176 151.008 265.344-17.248 25.632-54.112 37.824-104.64 37.824-53.888 0-123.072-13.888-200.384-39.904-32.64 146.816-91.328 244.864-158.432 244.864-67.552 0-126.624-99.36-159.040-247.776-76.704 24.992-145.568 38.24-199.392 38.24-52.576 0-90.912-12.608-108.288-39.168-36.416-55.648 28.288-158.112 154.336-263.36-124.704-106.88-188.128-210.176-150.976-265.344 17.248-25.696 54.144-37.824 104.736-37.824 53.76 0 122.976 13.888 200.256 39.808 32.544-146.784 91.264-244.8 158.4-244.8 67.616 0 126.656 99.328 159.040 247.744 76.672-24.992 145.6-38.208 199.36-38.208 52.672 0 90.88 12.608 108.32 39.136 36.512 55.68-28.224 158.208-154.304 263.424zM876.928 682.656c31.552 0 44.48-5.056 47.68-6.72 1.44-24-41.792-95.904-147.936-184.736-23.936 17.792-49.504 35.488-76.512 52.864-2.368 34.528-6.048 67.84-10.912 99.52 72.576 25.024 138.080 39.072 187.68 39.072zM583.328 358.048c-21.184-12.192-42.56-23.872-63.968-34.816-21.792 10.816-43.584 22.304-65.248 34.368-18.304 10.272-35.712 20.576-52.448 30.88-0.8 18.816-1.28 38.208-1.28 58.368 0 19.488 0.448 38.272 1.216 56.512 16.352 10.272 33.408 20.64 51.424 31.008 21.664 12.48 43.456 24.32 65.28 35.52 21.376-10.656 42.72-21.952 63.904-33.792 18.304-10.272 35.744-20.512 52.512-30.72 0.736-18.848 1.28-38.304 1.28-58.528 0-19.936-0.48-39.2-1.248-57.856-16.384-10.24-33.472-20.544-51.424-30.944zM628.576 306.592c-1.12-10.496-2.304-20.768-3.68-30.784-9.632 3.872-19.328 7.872-28.992 12.032 7.104 4 14.112 8 21.312 12.064 3.712 2.208 7.52 4.48 11.36 6.688zM442.976 286.656c-10.4-4.608-20.768-9.056-31.072-13.312-1.504 10.624-2.816 21.6-4.064 32.832 4.384-2.528 8.768-5.056 13.28-7.52 7.328-4.064 14.592-8.064 21.856-12zM332.832 433.184c-5.824 4-11.52 8.032-17.12 12.064 5.6 4.064 11.296 8.224 17.12 12.352-0.032-3.552-0.064-7.104-0.064-10.688 0-4.576 0.032-9.184 0.064-13.728zM407.808 587.296c1.12 10.496 2.336 20.768 3.712 30.752 9.632-3.872 19.296-7.872 29.024-12-7.104-4-14.176-8-21.312-12.096-3.872-2.208-7.648-4.448-11.424-6.656zM594.88 606.368c9.984 4.416 19.936 8.672 29.824 12.736 1.44-10.144 2.688-20.736 3.872-31.392-4.416 2.496-8.736 5.024-13.312 7.488-6.752 3.776-13.568 7.52-20.384 11.168zM703.488 460.704c6.080-4.288 12.192-8.512 17.984-12.736-5.92-4.288-11.872-8.64-17.984-13.024 0.064 3.936 0.064 7.936 0.064 11.936 0 4.64 0 9.216-0.064 13.824zM518.176 889.376c20.256 0 66.208-68.416 94.4-200.832-31.136-12.512-63.2-26.72-95.68-42.592-31.808 15.008-63.136 28.512-93.568 40.352 28.096 133.888 74.464 203.072 94.848 203.072zM108.8 671.392c4.256 2.4 17.984 8.48 50.912 8.48 49.6 0 114.976-13.696 187.104-37.984-4.736-31.648-8.416-64.864-10.784-99.392-27.040-17.888-52.672-36.064-76.576-54.304-107.168 87.392-151.392 158.912-150.656 183.2zM159.52 209.248c-31.648 0-44.576 6.048-47.808 7.744-1.408 24.032 41.952 96.064 148.736 185.056 23.712-17.568 48.96-35.136 75.648-52.32 2.496-35.136 6.208-68.928 11.2-101.056-72.608-25.248-138.208-39.424-187.776-39.424zM518.176 4.512c-20.256 0-66.24 68.384-94.368 200.832 31.104 12.48 63.104 26.72 95.584 42.56 31.808-15.104 63.168-28.544 93.632-40.416-28.096-133.824-74.464-202.976-94.848-202.976zM876.64 214.016c-49.568 0-114.944 13.696-187.104 38.016 4.768 31.648 8.416 64.864 10.784 99.36 27.072 17.92 52.64 36 76.576 54.272 107.296-87.456 151.424-158.944 150.688-183.232-4.256-2.432-18.016-8.416-50.944-8.416zM584.384 451.2c0-36.566-29.642-66.208-66.208-66.208s-66.208 29.642-66.208 66.208c0 36.566 29.642 66.208 66.208 66.208s66.208-29.642 66.208-66.208z" />
<glyph unicode="&#xe934;" glyph-name="automatic1" d="M148.624 520.4c1.643-6.269 6.511-11.209 12.782-12.932 1.591-0.426 3.214-0.643 4.826-0.643 4.722 0 9.329 1.837 12.782 5.231l115.956 114.142c4.628 4.556 6.469 11.24 4.826 17.519s-6.511 11.209-12.782 12.932l-16.235 4.452c41.623 49.754 104.068 79.79 169.613 81.014 9.922 0.187 17.858 8.272 17.858 18.162v72.192c0 4.857-1.955 9.507-5.419 12.921s-8.3 4.982-13.022 5.231c-115.821-1.588-220.139-60.859-280.483-158.936l-29.392 8.064c-6.272 1.712-12.98-0.042-17.608-4.577-4.628-4.556-6.469-11.24-4.826-17.519l41.124-157.254zM1003.199 960h-484.251c-11.482 0-20.801-9.299-20.801-20.757v-478.509h-477.345c-11.482 0-20.801-9.299-20.801-20.757v-483.221c0-11.458 9.319-20.757 20.801-20.757h766.554c0.073 0 0.146 0 0.208 0 11.482 0 20.801 9.299 20.801 20.757 0 1.007-0.073 1.982-0.208 2.947l-0.010 193.88h195.053c11.482 0 20.801 9.299 20.801 20.757v764.902c0 11.458-9.319 20.757-20.801 20.757zM92.95 28.752v339.23h622.236v-339.23h-622.236zM787.345 460.734h-196.259v406.513h339.954v-620.901h-122.893v193.631c0 11.458-9.319 20.757-20.801 20.757z" />
<glyph unicode="&#xe935;" glyph-name="automatic2" d="M875.376 520.4c-1.643-6.269-6.511-11.209-12.782-12.932-1.591-0.426-3.214-0.643-4.826-0.643-4.722 0-9.329 1.837-12.782 5.231l-115.956 114.142c-4.628 4.556-6.469 11.24-4.826 17.519s6.511 11.209 12.782 12.932l16.235 4.452c-41.623 49.754-104.068 79.79-169.613 81.014-9.922 0.187-17.858 8.272-17.858 18.162v72.192c0 4.857 1.955 9.507 5.419 12.921s8.3 4.982 13.022 5.231c115.811-1.578 220.128-60.849 280.473-158.925l29.392 8.064c6.272 1.712 12.98-0.042 17.608-4.577 4.628-4.556 6.469-11.24 4.826-17.519l-41.114-157.265zM0 939.243v-764.902c0-11.458 9.319-20.757 20.801-20.757h195.053l-0.010-193.88c-0.135-0.965-0.208-1.951-0.208-2.947 0-11.458 9.319-20.757 20.801-20.757 0.062 0 0.135 0 0.208 0h766.554c11.482 0 20.801 9.299 20.801 20.757v483.221c0 11.458-9.319 20.757-20.801 20.757h-477.335v478.509c0 11.458-9.319 20.757-20.801 20.757h-484.262c-11.482 0-20.801-9.299-20.801-20.757zM308.804 28.752v339.23h622.236v-339.23h-622.236zM215.854 439.977v-193.631h-122.904v620.901h339.954v-406.513h-196.249c-11.482 0-20.801-9.299-20.801-20.757z" />
<glyph unicode="&#xe936;" glyph-name="automatic3" d="M148.624 520.4c1.643-6.269 6.511-11.209 12.782-12.932 1.591-0.426 3.214-0.643 4.826-0.643 4.722 0 9.329 1.837 12.782 5.231l115.956 114.142c4.628 4.556 6.469 11.24 4.826 17.519s-6.511 11.209-12.782 12.932l-16.235 4.452c41.623 49.754 104.068 79.79 169.613 81.014 9.922 0.187 17.858 8.272 17.858 18.162v72.192c0 4.857-1.955 9.507-5.419 12.921s-8.3 4.982-13.022 5.231c-115.821-1.588-220.139-60.859-280.483-158.936l-29.392 8.064c-6.272 1.712-12.98-0.042-17.608-4.577-4.628-4.556-6.469-11.24-4.826-17.519l41.124-157.254zM1003.199 960h-484.251c-11.482 0-20.801-9.299-20.801-20.757v-478.509h-477.345c-11.482 0-20.801-9.299-20.801-20.757v-483.221c0-11.458 9.319-20.757 20.801-20.757h766.762c11.482 0 20.801 9.299 20.801 20.757 0 1.007-0.073 1.982-0.208 2.947l-0.010 193.88h195.053c11.482 0 20.801 9.299 20.801 20.757v764.902c0 11.458-9.319 20.757-20.801 20.757z" />
<glyph unicode="&#xe937;" glyph-name="automatic4" d="M875.376 520.4c-1.643-6.269-6.511-11.209-12.782-12.932-1.591-0.426-3.214-0.643-4.826-0.643-4.722 0-9.329 1.837-12.782 5.231l-115.956 114.142c-4.628 4.556-6.469 11.24-4.826 17.519s6.511 11.209 12.782 12.932l16.235 4.452c-41.623 49.754-104.068 79.79-169.613 81.014-9.922 0.187-17.858 8.272-17.858 18.162v72.192c0 4.857 1.955 9.507 5.419 12.921s8.3 4.982 13.022 5.231c115.811-1.578 220.128-60.849 280.473-158.925l29.392 8.064c6.272 1.712 12.98-0.042 17.608-4.577 4.628-4.556 6.469-11.24 4.826-17.519l-41.114-157.265zM0 939.243v-764.902c0-11.458 9.319-20.757 20.801-20.757h195.053l-0.010-193.88c-0.135-0.965-0.208-1.951-0.208-2.947 0-11.458 9.319-20.757 20.801-20.757h766.762c11.482 0 20.801 9.299 20.801 20.757v483.221c0 11.458-9.319 20.757-20.801 20.757h-477.335v478.509c0 11.458-9.319 20.757-20.801 20.757h-484.262c-11.482 0-20.801-9.299-20.801-20.757z" />
<glyph unicode="&#xe938;" glyph-name="barcode" d="M75.077 807.692c-41.365 0-75.077-33.712-75.077-75.077v-569.231c0-41.365 33.712-75.077 75.077-75.077h873.846c41.365 0 75.077 33.712 75.077 75.077v569.231c0 41.365-33.712 75.077-75.077 75.077zM75.077 791.938h873.846c32.842 0 59.323-26.482 59.323-59.323v-569.231c0-32.842-26.482-59.323-59.323-59.323h-873.846c-32.842 0-59.323 26.482-59.323 59.323v569.231c0 32.842 26.482 59.323 59.323 59.323zM100.8 706.892v-517.785h83.015v517.785zM201.662 706.892v-452.677h49.354v452.677zM302.462 706.892v-452.677h49.354v452.677zM369.662 706.892v-452.677h83.015v452.677zM470.523 706.892v-452.677h49.354v452.677zM571.323 706.892v-452.677h83.015v452.677zM672.185 706.892v-452.677h49.354v452.677zM772.985 706.892v-452.677h49.354v452.677zM840.185 706.892v-517.785h83.015v517.785z" />
<glyph unicode="&#xe939;" glyph-name="barcode1" d="M955.733 805.342h-887.467c-37.683 0-68.267-30.584-68.267-68.267v-578.15c0-37.683 30.583-68.267 68.267-68.267h887.467c37.683 0 68.267 30.583 68.267 68.267v578.15c0 37.683-30.583 68.267-68.267 68.267zM170.667 193.058h-68.267v509.884h68.267v-509.884zM238.933 259.208h-34.133v443.733h34.133v-443.733zM341.333 259.208h-34.133v443.733h34.133v-443.733zM443.733 259.208h-68.267v443.733h68.267v-443.733zM512 259.208h-34.133v443.733h34.133v-443.733zM648.533 259.208h-68.267v443.733h68.267v-443.733zM716.8 259.208h-34.133v443.733h34.133v-443.733zM819.2 259.208h-34.133v443.733h34.133v-443.733zM921.6 193.058h-68.267v509.884h68.267v-509.884z" />
<glyph unicode="&#xe93a;" glyph-name="basket" d="M678.728 461.978c-23.027 0-41.665-18.638-41.665-41.665v-222.236c0-23.027 18.638-41.665 41.665-41.665s41.665 18.638 41.665 41.665v222.236c0.068 23.027-18.638 41.665-41.665 41.665v0zM345.34 461.978c-22.96 0-41.665-18.638-41.665-41.665v-222.236c0-23.027 18.638-41.665 41.665-41.665s41.733 18.638 41.733 41.665v222.236c0 23.027-18.705 41.665-41.733 41.665v0zM512.068 461.978c-23.027 0-41.733-18.638-41.733-41.665v-222.236c0-23.027 18.638-41.665 41.733-41.665 22.96 0 41.665 18.638 41.665 41.665v222.236c0 23.027-18.705 41.665-41.665 41.665v0zM660.225 869.242c-18.368 13.641-40.922 21.339-64.827 21.339-33.359 0-63.342-15.059-83.33-38.694-20.056 23.702-49.971 38.694-83.33 38.694-39.639 0-75.564-21.136-94.945-55.576-0.675-1.148-1.351-2.228-1.958-3.444l-112.772-213.052c-1.013-1.823-1.891-3.782-2.701-5.672h-107.168c-60.235 0-109.193-49.026-109.193-109.193 0-54.765 40.517-100.212 93.122-108.045l76.847-307.457c0.473-2.026 1.080-4.052 1.756-5.942 14.113-45.514 56.116-76.78 104.331-76.78h472.091c47.945 0 89.948 31.198 104.129 76.577 0.743 2.026 1.35 4.052 1.823 6.145l76.847 307.457c52.605 7.833 93.054 53.347 93.054 108.451 0 2.499-0.269 8.036-0.54 10.467l-0.202 1.486c-0.134 1.553-0.405 3.444-0.743 5.2v0c-8.036 49.431-48.485 86.977-98.389 91.298-1.958 0.203-3.849 0.27-5.807 0.27h-110.611c-0.81 1.891-1.688 3.849-2.701 5.672l-40.179 75.902-104.736 180.368v-5.47zM512.136 705.418l48.958-92.514h-97.984l49.026 92.514zM651.177 586.973l-92.109 174.088 0.134 0.135c-3.376 6.010-5.47 12.83-5.47 20.326 0 22.96 18.638 41.597 41.665 41.597 16.342 0 30.32-9.521 37.141-23.095h0.134l112.772-213.052h-94.27zM278.691 586.973l112.772 213.052h0.067c6.888 13.641 20.866 23.095 37.141 23.095 23.027 0 41.665-18.638 41.665-41.597 0-7.361-2.093-14.316-5.47-20.326l0.269-0.135-92.176-174.088h-94.27zM109.193 461.978c-23.027 0-41.665 18.638-41.665 41.665s18.638 41.665 41.665 41.665h809.192c19.11-1.621 34.507-16.139 37.546-34.845 0.134-0.473 0.134-1.080 0.202-1.621 0.067-0.608 0.134-1.148 0.202-1.688 0.067-1.013 0.134-2.026 0.134-3.039v-0.473c0-23.027-18.638-41.665-41.665-41.665h-36.803l-89.34-357.428-0.067 0.067c-4.524-18.165-20.799-31.603-40.314-31.603h-472.36c-19.516 0-35.79 13.438-40.314 31.603l-0.067-0.067-89.34 357.428h-37.006z" />
<glyph unicode="&#xe93b;" glyph-name="basket1" d="M566.134 808.51l106.135-200.515h108.565l-129.891 245.399-0.198-0.050c-7.836 15.722-23.905 26.633-42.702 26.633-26.534 0-48.058-21.475-48.058-48.009 0-8.53 2.43-16.416 6.299-23.409zM457.966 808.51l-0.246 0.099c3.868 6.943 6.299 14.879 6.299 23.36 0 26.534-21.525 48.009-48.058 48.009-18.747 0-34.866-10.911-42.702-26.633l-0.147 0.050-129.94-245.399h108.614zM1023.603 518.029l-0.298 1.934c-3.472 21.524-21.227 38.189-43.198 40.024h-932.098c-26.485 0-48.010-21.475-48.010-48.009 0-26.484 21.524-48.009 48.009-48.009h42.503l102.911-411.594h0.099c5.257-20.88 24.004-36.354 46.471-36.354h544.014c22.467 0 41.214 15.523 46.471 36.354h0.099l102.911 411.594h42.503c26.484 0 48.008 21.524 48.008 48.009v0.496c0 1.141-0.099 2.331-0.198 3.521 0 0.744-0.099 1.339-0.198 2.033zM367.999 159.998c0-26.534-21.524-48.009-48.058-48.009-26.434 0-47.959 21.475-47.959 48.009v256.012c0 26.484 21.524 47.959 47.959 47.959 26.534 0 48.058-21.475 48.058-47.959zM559.984 159.998c0-26.534-21.524-48.009-47.959-48.009-26.534 0-48.058 21.475-48.058 48.009v256.012c0 26.484 21.524 47.959 48.058 47.959 26.434 0 47.959-21.475 47.959-47.959zM751.968 159.998c0-26.534-21.524-48.009-47.959-48.009-26.534 0-48.058 21.475-48.058 48.009v256.012c0 26.484 21.524 47.959 48.058 47.959 26.434 0 47.959-21.475 47.959-47.959z" />
<glyph unicode="&#xe93c;" glyph-name="battery0" d="M692.515 900.923h-79.167v59.077h-206.782v-59.077h-75.081c-48.886 0-88.616-39.754-88.616-88.616v-787.691c0-48.862 39.742-88.616 88.616-88.616h361.030c48.886 0 88.616 39.754 88.616 88.616v787.691c0 48.862-39.742 88.616-88.616 88.616zM722.053 24.604c0-16.283-13.255-29.539-29.551-29.539h-361.018c-16.295 0-29.551 13.243-29.551 29.539v787.704c0 16.283 13.255 29.539 29.551 29.539h361.030c16.295 0 29.551-13.255 29.551-29.539v-787.704z" />
<glyph unicode="&#xe93d;" glyph-name="battery1" d="M692.515 900.923h-79.167v59.077h-206.782v-59.077h-75.081c-48.886 0-88.616-39.754-88.616-88.616v-787.691c0-48.862 39.742-88.616 88.616-88.616h361.030c48.886 0 88.616 39.754 88.616 88.616v787.691c0 48.862-39.742 88.616-88.616 88.616zM722.053 24.604c0-16.283-13.255-29.539-29.551-29.539h-361.018c-16.295 0-29.551 13.243-29.551 29.539v787.704c0 16.283 13.255 29.539 29.551 29.539h361.030c16.295 0 29.551-13.255 29.551-29.539v-787.704zM689.852 30.027h-355.703v129.61h355.703v-129.61z" />
<glyph unicode="&#xe93e;" glyph-name="battery2" d="M692.545 900.923h-79.191v59.077h-206.758v-59.077h-75.105c-48.886 0-88.616-39.754-88.616-88.616v-787.691c0-48.862 39.742-88.616 88.616-88.616h361.042c48.862 0 88.591 39.754 88.591 88.616v787.691c0.012 48.862-39.729 88.616-88.579 88.616zM722.060 24.604c0-16.283-13.255-29.539-29.526-29.539h-361.042c-16.295 0-29.551 13.243-29.551 29.539v787.704c0 16.283 13.255 29.539 29.551 29.539h361.042c16.271 0 29.526-13.255 29.526-29.539v-787.704zM689.858 30.027h-355.703v129.61h355.703v-129.61zM689.858 191.559h-355.703v129.61h355.703v-129.61z" />
<glyph unicode="&#xe93f;" glyph-name="battery3" d="M692.515 900.923h-79.167v59.077h-206.758v-59.077h-75.105c-48.874 0-88.616-39.754-88.616-88.616v-787.691c0-48.862 39.754-88.616 88.616-88.616h361.030c48.874 0 88.616 39.754 88.616 88.616v787.691c0 48.862-39.742 88.616-88.616 88.616zM722.066 24.604c0-16.283-13.255-29.539-29.551-29.539h-361.030c-16.283 0-29.539 13.243-29.539 29.539v787.704c0 16.283 13.255 29.539 29.539 29.539h361.030c16.295 0 29.551-13.255 29.551-29.539v-787.704zM689.852 30.027h-355.703v129.61h355.703v-129.61zM689.852 191.559h-355.703v129.61h355.703v-129.61zM689.852 353.103h-355.703v129.61h355.703v-129.61z" />
<glyph unicode="&#xe940;" glyph-name="battery4" d="M692.515 900.923h-79.179v59.077h-206.758v-59.077h-75.093c-48.874 0-88.616-39.754-88.616-88.616v-787.691c0-48.862 39.754-88.616 88.616-88.616h361.030c48.874 0 88.616 39.754 88.616 88.616v787.691c0 48.862-39.742 88.616-88.616 88.616zM722.053 24.604c0-16.283-13.255-29.539-29.539-29.539h-361.030c-16.295 0-29.551 13.243-29.551 29.539v787.704c0 16.283 13.255 29.539 29.551 29.539h361.030c16.283 0 29.539-13.255 29.539-29.539v-787.704zM689.852 30.027h-355.703v129.61h355.691v-129.61zM689.852 191.559h-355.703v129.61h355.691v-129.61zM689.852 353.103h-355.703v129.61h355.691v-129.61zM689.852 514.27h-355.703v129.61h355.691v-129.61z" />
<glyph unicode="&#xe941;" glyph-name="battery5" d="M692.515 900.923h-79.179v59.077h-206.758v-59.077h-75.093c-48.874 0-88.616-39.754-88.616-88.616v-787.691c0-48.862 39.754-88.616 88.616-88.616h361.030c48.874 0 88.616 39.754 88.616 88.616v787.691c0 48.862-39.742 88.616-88.616 88.616zM722.053 24.604c0-16.283-13.243-29.539-29.539-29.539h-361.030c-16.295 0-29.551 13.243-29.551 29.539v787.704c0 16.283 13.255 29.539 29.551 29.539h361.030c16.295 0 29.539-13.255 29.539-29.539v-787.704zM689.852 30.027h-355.703v129.61h355.691v-129.61zM689.852 191.559h-355.703v129.61h355.691v-129.61zM689.852 353.103h-355.703v129.61h355.691v-129.61zM689.852 514.27h-355.703v129.61h355.691v-129.61zM689.852 675.814h-355.703v129.61h355.691v-129.61z" />
<glyph unicode="&#xe942;" glyph-name="bell" d="M950.245 155.431v-73.167h-259.344c-16.839-83.423-90.56-146.264-178.9-146.264-88.343 0-161.996 62.842-178.974 146.264h-259.272v73.167l109.546 219.852v255.6c0 181.741 147.163 329.117 328.7 329.117 181.531 0 328.7-147.375 328.7-329.117v-256.019l109.543-219.432zM512.001 9.095c47.598 0 87.024 30.835 102.196 73.167h-204.396c15.175-42.332 54.668-73.167 102.201-73.167zM767.67 374.242v256.641c0 141.347-114.463 255.946-255.669 255.946-141.211 0-255.672-114.599-255.672-255.946v0-253.593l-109.546-221.861h730.429l-109.542 218.812z" />
<glyph unicode="&#xe943;" glyph-name="bell1" d="M950.245 155.431v-73.167h-259.344c-16.839-83.423-90.56-146.264-178.9-146.264-88.343 0-161.996 62.842-178.974 146.264h-259.272v73.167l109.546 219.852v255.6c0 181.741 147.163 329.117 328.7 329.117 181.531 0 328.7-147.375 328.7-329.117v-256.019l109.543-219.432z" />
<glyph unicode="&#xe944;" glyph-name="bicycle" d="M813.758 470.842c-115.934 0-210.247-94.315-210.247-210.237 0-115.929 94.315-210.242 210.247-210.242 115.929 0 210.242 94.315 210.242 210.242 0 115.922-94.315 210.237-210.242 210.237zM813.758 113.236c-81.257 0-147.366 66.104-147.366 147.366 0 81.257 66.109 147.366 147.366 147.366 81.252 0 147.361-66.109 147.361-147.366 0-81.262-66.109-147.366-147.361-147.366zM210.247 470.842c-115.934 0-210.247-94.315-210.247-210.237 0-115.929 94.315-210.242 210.247-210.242 115.924 0 210.237 94.315 210.237 210.242 0.002 115.922-94.313 210.237-210.237 210.237zM210.247 113.236c-81.262 0-147.366 66.104-147.366 147.366 0 81.257 66.104 147.366 147.366 147.366 81.252 0 147.361-66.109 147.361-147.366 0.002-81.262-66.107-147.366-147.361-147.366zM541.214 789.899c-16.296-0.515-33.273-4.742-49.671-12.843l-164.357-81.205c-62.507-31.452-101.211-111.794-65.871-183.31 17.073-34.551 44.856-52.477 74.857-71.948l0.376-0.243 81.167-49.51 10.262-164.986v-0.029c2.674-41.752 37.939-75.124 80.224-74.857 43.735 0.274 79.639 36.656 79.357 80.39l-1.367 211.524v0.105c-0.33 25.282-12.179 50.387-34.362 66.371l0.905-0.681-18.781 14.571 51.862 26.538 81.176-67.705c11.663-9.734 26.672-15.983 42.914-16.833l92.838-4.881c37.999-2.019 72.501 25.063 79.010 63.186v0.010c3.414 20.002-2.382 41.494-15.029 55.833-12.648 14.342-29.736 21.76-47.181 24.738l-0.333 0.057-82.119 12.262c-5.352 7.358-13.609 18.772-28.79 39.195-19.401 26.101-37.829 51.461-50.881 65.095l-0.005 0.005c-23.519 24.573-43.294 46.261-70.624 59.733-13.666 6.737-29.28 9.93-45.576 9.414zM542.629 727.451c5.549 0.283 9.951-1.458 15.862-4.371 11.822-5.828 29.444-22.299 52.69-46.586h0.005v-0.005c2.612-2.729 26.627-33.289 45.752-59.019s36.343-49.481 36.343-49.481l7.89-10.881 107.671-16.081c6.494-1.127 9.477-3.504 9.876-3.957 0.402-0.455 0.631 1.267-0.052-2.733l-0.005-0.005v-0.005c-1.101-6.455-6.437-10.374-12.529-10.048h-0.015l-92.867 4.886c-2.147 0.112-3.795 0.836-5.252 2.052h-0.005l-113.671 94.814-179.124-91.643 99.21-76.952c4.953-3.569 7.711-9.511 7.786-15.281l1.362-211.21c0.059-9.153-6.624-15.919-15.757-15.976h-0.005c-8.714-0.055-15.401 6.434-15.948 14.938 0 0.002 0 0.002 0 0.005l-12.329 198.195-108.79 66.362c-29.739 19.302-42.993 28.119-52.038 46.424v0.005c-17.814 36.049 5.298 81.691 37.252 97.776 0.002 0.002 0.007 0.002 0.010 0.005l163.938 81c10.492 5.183 17.19 7.489 22.738 7.771zM762.343 927.494c-25.814 0.591-51.61-6.702-73.61-21.533-35.202-23.724-56.157-63.694-55.767-106.095v-0.010c0.399-41.597 21.393-80.411 55.838-103.595h0.005c14.039-9.446 29.799-15.923 46.31-19.148l0.1-0.020 0.067-0.015c0.012-0.002 0.025-0.002 0.038-0.005 41.163-7.975 83.729 5.069 113.39 34.652l0.010 0.010c30.201 30.141 43.164 73.701 34.357 115.452v0.005c-8.562 40.627-36.65 74.656-75.057 90.644l-0.005 0.005h-0.010c-14.685 6.105-30.178 9.298-45.667 9.652zM753.233 863.090c10.224 1.015 20.697-0.392 30.195-4.338 0.001-0.001 0.002 0.001 0.005 0s0.007-0.003 0.010-0.005c18.422-7.674 32.889-25.179 37.014-44.757v-0.005c4.23-20.052-2.444-42.473-16.948-56.948-14.405-14.362-36.094-20.997-56.029-17.129l-0.086 0.019h-0.010l-0.015 0.005c-8.151 1.594-16.012 4.836-22.833 9.424-16.591 11.167-27.381 31.148-27.576 51.1v0.005c0 0.002 0 0.003 0 0.005-0.186 20.584 10.512 40.948 27.543 52.424v0.005h0.005c8.515 5.74 18.495 9.18 28.724 10.195z" />
<glyph unicode="&#xe945;" glyph-name="bicycle1" d="M602.29 260.604c0-116.59 94.874-211.462 211.467-211.462 116.59 0 211.462 94.874 211.462 211.462-42.003 305.43-415.886 230.878-422.929 0zM210.248 472.061c-116.595 0-211.467-94.874-211.467-211.457 0-116.59 94.874-211.462 211.467-211.462 116.585 0 211.457 94.874 211.457 211.462 0.002 116.583-94.872 211.457-211.457 211.457zM541.214 789.899c-16.296-0.515-33.273-4.742-49.671-12.843l-164.357-81.205c-62.507-31.452-101.211-111.794-65.871-183.31 17.073-34.551 44.856-52.477 74.857-71.948l0.376-0.243 81.167-49.51 10.262-164.986v-0.029c2.674-41.752 37.939-75.124 80.224-74.857 43.735 0.274 79.639 36.656 79.357 80.39l-1.367 211.524v0.105c-0.33 25.282-12.179 50.387-34.362 66.371l0.905-0.681-18.781 14.571 51.862 26.538 81.176-67.705c11.663-9.734 26.672-15.983 42.914-16.833l92.838-4.881c37.999-2.019 72.501 25.063 79.010 63.186v0.010c3.414 20.002-2.382 41.494-15.029 55.833-12.648 14.342-29.736 21.76-47.181 24.738l-0.333 0.057-82.119 12.262c-5.352 7.358-13.609 18.772-28.79 39.195-34.034 45.406-75.002 101.147-121.51 124.833-13.666 6.737-29.28 9.93-45.576 9.414zM762.343 927.494c-25.814 0.591-51.61-6.702-73.61-21.533-35.202-23.724-56.157-63.694-55.767-106.095v-0.010c0.399-41.597 21.393-80.411 55.838-103.595h0.005c14.039-9.446 29.799-15.923 46.31-19.148l0.1-0.020 0.067-0.015c0.012-0.002 0.025-0.002 0.038-0.005 41.163-7.975 83.729 5.069 113.39 34.652l0.010 0.010c30.201 30.141 43.164 73.701 34.357 115.452v0.005c-8.562 40.627-36.65 74.656-75.057 90.644l-0.005 0.005h-0.010c-14.685 6.105-30.178 9.298-45.667 9.652z" />
<glyph unicode="&#xe946;" glyph-name="bio" d="M234.194 266.991v3.155c25.88 4.553 45.649 15.735 59.427 33.428 13.818 17.732 20.608 39.938 20.608 66.576 0 39.618-13.978 68.573-41.974 86.904s-73.565 27.517-136.507 27.517h-135.748v-457.126h165.142c51 0 90.938 11.622 119.573 34.866 28.715 23.244 42.973 55.393 42.973 96.449 0 30.432-7.508 54.555-22.605 72.407-15.136 17.892-38.779 29.793-70.889 35.824zM74.723 422.108h64.739c33.707 0 58.429-4.793 73.964-14.378 15.616-9.585 23.324-25.121 23.324-46.607 0-23.763-7.269-40.577-21.606-50.481s-37.222-14.857-68.493-14.857h-71.928v126.323zM225.048 108.319c-15.975-11.981-39.618-17.972-70.889-17.972h-79.436v144.774h75.682c33.148 0 57.87-5.751 74.084-17.213 16.295-11.462 24.402-29.075 24.402-52.837 0.040-25.84-7.908-44.73-23.843-56.751zM422.699 484.651h74.803v-457.126h-74.803v457.126zM968.327 430.216c-37.142 41.056-89.62 61.584-157.634 61.584-68.972 0-122.009-20.248-159.191-60.665-37.222-40.457-55.833-98.366-55.833-173.848 0-75.442 18.571-133.671 55.553-174.607 37.062-40.936 89.939-61.464 158.952-61.464 68.173 0 120.811 20.648 158.113 61.903 37.142 41.256 55.713 99.085 55.713 173.529-0.040 74.683-18.611 132.513-55.673 173.569zM910.697 128.168c-22.605-28.755-56.152-43.133-100.563-43.133-44.61 0-78.318 14.537-101.002 43.612s-34.107 71.728-34.107 128.040c0 56.072 11.462 98.566 34.306 127.561 22.764 28.955 56.552 43.452 101.322 43.452 44.451 0 77.918-14.497 100.323-43.452 22.405-28.995 33.548-71.488 33.548-127.561 0.040-56.911-11.183-99.724-33.827-128.519zM630.375 609.016c8.986 9.545 17.932 18.571 25.76 28.875 15.815 19.849 29.234 40.856 39.938 62.942 5.631 10.424 10.144 22.485 14.577 33.388 4.513 10.823 8.347 22.764 12.021 33.747 3.794 10.783 7.229 21.726 10.184 32.31 3.355 10.943 6.31 20.528 8.746 28.316 2.716 7.788 4.433 15.935 5.991 20.728 1.398 5.432 2.197 8.267 2.197 8.267s-2.716 1.478-7.428 3.395c-4.673 1.677-12.181 5.192-20.887 7.149-8.746 2.077-20.688 5.711-32.669 6.23-12.021 0.719-25.76 0.559-40.736-0.759-14.497-1.797-29.115-5.551-44.85-10.264-15.616-4.793-29.873-12.181-45.010-20.248-14.737-8.307-28.076-18.491-41.495-29.554-12.54-11.342-24.402-23.763-35.265-36.982-9.984-13.459-19.889-27.397-27.317-42.054-7.788-14.577-14.417-29.554-18.97-44.77-9.825-30.153-13.020-60.905-12.341-88.142 0.639-13.818 1.957-26.598 4.154-38.3 2.037-11.622 5.312-22.325 7.948-30.912 1.078-4.114 2.556-7.948 3.994-11.342 2.037 4.713 4.193 9.745 6.71 15.256 12.341 27.158 30.432 62.582 51.959 95.97 10.703 16.654 22.485 32.629 34.107 47.086 6.15 6.989 12.181 13.699 17.772 20.089 5.991 5.911 11.782 11.582 17.093 16.694 5.791 4.753 10.983 9.026 15.616 12.82 4.513 4.034 9.266 6.47 12.78 8.866 7.189 4.753 11.302 7.388 11.302 7.388s-3.914-3.035-10.783-8.227c-3.275-2.756-7.628-5.471-11.861-9.785-4.193-4.154-9.066-8.786-14.338-13.858-4.753-5.471-9.984-11.502-15.536-17.812-4.992-6.67-10.304-13.699-15.815-20.927-10.224-15.096-20.608-31.591-29.714-48.724-18.411-34.227-33.308-70.17-43.212-97.528-2.876-8.107-2.876-8.107-4.193-11.901l22.405 0.080c6.39 2.356 13.339 4.872 20.288 8.107 10.304 4.433 21.287 9.625 32.389 15.496 11.143 5.791 22.085 12.5 33.308 19.529 11.063 7.029 21.686 14.977 32.070 23.124 9.984 8.387 20.129 16.894 29.115 26.239z" />
<glyph unicode="&#xe947;" glyph-name="bio1" d="M843.575 270.33c21.919 6.765 43.305 14.853 54.166 33.628 12.185 21.026 6.193 46.801 0.4 71.73-3.901 16.776-7.932 34.121-4.854 46.308 3.289 13.023 15.339 26.865 26.993 40.255 16.263 18.685 33.082 38.007 33.082 61.099 0 22.416-17.299 44.525-34.028 65.906-12.026 15.37-24.46 31.263-27.796 44.368-3.099 12.189 0.902 29.546 4.774 46.333 5.751 24.938 11.696 50.724-0.524 71.715-12.211 21.001-37.567 28.576-62.085 35.9-16.506 4.929-33.569 10.028-42.628 18.749-9.581 9.217-15.525 26.518-21.271 43.249-8.153 23.744-16.59 48.298-37.24 59.335-7.482 4-16.015 5.943-26.087 5.943-14.198 0-29.352-3.939-44.010-7.749-13.942-3.625-27.113-7.048-38.517-7.048-3.435 0-6.449 0.312-9.217 0.948-12.762 2.942-26.649 14.78-40.078 26.229-18.902 16.11-38.447 32.771-61.762 32.771-29.102 0-65.694-29.307-89.907-48.7-5.665-4.538-12.642-10.125-15.175-11.593-2.562-0.528-5.433-0.796-8.545-0.796-11.38 0-24.516 3.388-38.422 6.978-14.614 3.771-29.725 7.669-43.882 7.669-10.14 0-18.72-1.963-26.229-5.999-20.632-11.080-29.018-35.649-37.129-59.41-5.713-16.74-11.621-34.051-21.183-43.28-9.051-8.744-26.111-13.876-42.611-18.838-24.502-7.371-49.838-14.992-62.012-36.011s-6.18-46.786-0.387-71.708c3.903-16.78 7.939-34.13 4.858-46.326-3.068-12.147-14.285-25.669-26.16-39.987-17.441-21.024-35.474-42.763-35.474-68.479 0-23.114 16.879-42.423 33.202-61.095 11.681-13.361 23.76-27.177 27.073-40.179 3.101-12.189-0.902-29.548-4.772-46.333-5.749-24.931-11.694-50.713 0.519-71.717 11.21-19.255 33.854-27.336 55.074-33.792-21.083-36.064-92.186-156.065-92.997-157.436-6.631-11.431-7.462-23.408-2.279-32.861 5.185-9.457 15.734-15.204 28.956-15.763l95.021-3.961c15.723-0.667 36.866-12.916 45.245-26.209l50.7-80.467c6.922-10.985 16.966-17.284 27.55-17.284 10.985 0 21.156 6.681 27.869 18.263 0.884 1.501 79.115 134.164 96.993 164.466 12.603-9.76 34.886-24.189 56.424-24.189 19.233 0 35.936 11.093 51.37 23.744 7.409-13.244 28.98-51.816 91.971-164.433 6.757-11.612 16.919-18.274 27.882-18.276 0.002 0 0.002 0 0.004 0 10.6 0 20.65 6.317 27.57 17.332l50.55 80.545c8.372 13.33 29.489 25.616 45.194 26.295l95.017 4.146c13.213 0.579 23.755 6.343 28.923 15.812 5.15 9.435 4.321 21.364-2.274 32.746-2.204 3.992-61.302 110.864-87.849 157.453zM805.502 450.137c-20.816-78.739-70.939-144.592-141.129-185.428-46.375-26.976-99.141-41.232-152.6-41.232-57.954 0-114.469 16.327-163.372 47.175-137.455 88.042-181.005 267.701-99.137 409.006 54.247 93.642 155.42 151.815 264.039 151.815 50.468 0 100.62-12.786 145.041-36.977l1.028-0.572c0.438-0.245 0.875-0.493 1.171-0.652l0.869-0.486c0.769-0.431 1.534-0.86 2.349-1.335 45.756-26.37 84.034-64.532 110.694-110.358 40.838-70.194 51.865-152.215 31.047-230.956zM420.127 525.543c4.341 3.121 7.977 6.849 10.876 11.157 5.201 7.729 7.837 16.596 7.837 26.357 0 18.942-7.046 33.436-20.94 43.086-13.261 9.21-31.717 13.88-54.849 13.88h-68.956v-198.764h77.855c22.902 0 41.006 5.055 53.803 15.025 13.219 10.295 19.923 25.49 19.923 45.166 0 11.52-3.185 21.835-9.469 30.667-4.087 5.733-9.471 10.222-16.082 13.427zM391.251 466.544c-4.202-3.47-10.695-5.229-19.3-5.229h-29.155v42.969h31.993c7.972 0 13.719-1.848 17.083-5.49 3.474-3.768 5.238-9.579 5.238-17.277-0.004-6.816-1.921-11.714-5.859-14.972zM342.794 541.377v38.586h20.259c9.546 0 16.645-1.706 21.099-5.070 4.034-3.050 5.994-7.893 5.994-14.802 0-6.14-1.945-10.607-5.945-13.655-4.405-3.357-11.086-5.059-19.857-5.059h-21.55zM487.927 620.021h48.695v-198.764h-48.695v198.764zM662.914 622.728c-24.58 0-44.858-8.189-60.275-24.337-15.343-16.077-23.123-36.555-23.123-60.865v-33.779c0-24.403 7.804-44.905 23.198-60.938 15.454-16.099 35.752-24.261 60.328-24.261 24.734 0 45.177 8.156 60.759 24.244 15.531 16.033 23.408 36.544 23.408 60.955v33.779c0 24.323-7.897 44.812-23.472 60.894-15.626 16.13-36.091 24.308-60.823 24.308zM688.831 470.531c-6.171-8.021-14.605-11.922-25.789-11.922-10.998 0-19.3 3.892-25.382 11.898-6.354 8.359-9.575 19.49-9.575 33.085v34.101c0 13.431 3.18 24.458 9.457 32.775 5.999 7.952 14.298 11.818 25.371 11.818 11.106 0 19.549-3.91 25.809-11.948 6.496-8.352 9.793-19.335 9.793-32.645v-34.101c-0.002-13.582-3.26-24.706-9.685-33.060z" />
<glyph unicode="&#xe948;" glyph-name="bluetooth1" d="M501.125 959.875c-13.292 0.681-26.798-2.151-38.938-8.625-24.168-12.867-39.812-38.056-39.812-65.688v-245.25l-114.25 115.438c-28.757 28.974-75.831 29.173-104.812 0.438-29.030-28.812-29.26-76.147-0.437-105.188l201.312-203-201.312-203c-28.822-29.041-28.647-76.419 0.375-105.25h0.062c28.981-28.736 76.071-28.577 104.812 0.437l114.25 115.438v-245.187c0-27.632 15.645-52.821 39.812-65.687 24.278-12.948 53.899-11.417 76.75 4v-0.064l270.75 182.188c18.39 12.397 30.395 32.39 32.562 54.5 2.135 22.059-5.628 44.011-21.312 59.75l-202.062 202.877 202.062 202.875c15.684 15.739 23.447 37.628 21.312 59.687v0.062c-2.192 22.114-14.121 42.057-32.5 54.438v0.062l-270.813 182.188c-11.425 7.694-24.52 11.881-37.813 12.563zM476.813 923.875c14.12 7.531 31.519 6.64 44.812-2.313l270.75-182.187c10.735-7.231 17.721-18.912 19-31.813 1.229-12.891-3.318-25.661-12.438-34.812l-223.813-224.75 10.875-10.938 212.938-213.813c9.134-9.166 13.687-21.963 12.438-34.875-1.26-12.861-8.234-24.492-19-31.75l-270.75-182.187c-13.292-8.968-30.692-9.843-44.812-2.313-14.25 7.576-23.375 22.442-23.375 38.313v320.75l-167.313-169.125c-17.033-17.194-43.816-17.289-61-0.25-17.143 17.031-17.246 44.188-0.25 61.312v0.064l223 224.811-223 224.812c-16.996 17.125-16.885 44.369 0.25 61.375 17.184 17.039 43.939 16.941 61-0.25l167.313-169.125v320.75c0 15.871 9.125 30.737 23.375 38.313zM541.875 804.062v-267.375l159.438 160.063-159.438 107.312zM572.938 745.812l79.875-53.812-79.875-80.125v133.937zM541.875 359.313v-267.438l24.187 16.312 135.25 91-159.438 160.125zM572.938 284.125l79.875-80.187-79.875-53.75v133.938z" />
<glyph unicode="&#xe949;" glyph-name="bluetooth2" d="M501.125 959.875c-13.292 0.681-26.798-2.151-38.938-8.625-24.168-12.867-39.812-38.056-39.812-65.688v-232.125l31.062-31v263.125c0 15.871 9.125 30.737 23.375 38.313 14.12 7.531 31.519 6.64 44.812-2.313l270.75-182.187c10.735-7.231 17.721-18.912 19-31.813 1.229-12.891-3.318-25.661-12.438-34.812l-197.25-198.063 21.938-21.875 197.313 198.062c15.684 15.739 23.447 37.628 21.312 59.687v0.062c-2.192 22.114-14.121 42.057-32.5 54.438v0.062l-270.813 182.188c-11.425 7.694-24.52 11.881-37.813 12.563zM541.875 804.062v-267.375l159.438 160.063-159.438 107.312zM572.938 745.812l79.875-53.812-79.875-80.125v133.937zM399.875 443.687l-197-198.687c-28.822-29.041-28.647-76.419 0.375-105.25h0.062c28.981-28.736 76.071-28.577 104.812 0.437l114.25 115.438v-245.187c0-27.632 15.645-52.821 39.812-65.687 24.278-12.948 53.899-11.417 76.75 4v-0.063l213.438 143.625-22.375 22.312-208.375-140.187c-13.292-8.968-30.692-9.843-44.812-2.313-14.25 7.576-23.375 22.442-23.375 38.313v320.75l-167.313-169.125c-17.033-17.194-43.816-17.289-61-0.25-17.143 17.031-17.246 44.188-0.25 61.312v0.062l197 198.563-22 21.937zM541.875 302.125v-210.25l24.187 16.312 101.75 68.438-22.438 22.313-72.438-48.75v121l-31.062 30.938zM36.824 855.294l67.882 67.882 882.469-882.469-67.882-67.882-882.469 882.469z" />
<glyph unicode="&#xe94a;" glyph-name="bluetooth3" d="M500 959.937c-10.862 0.557-21.85-1.783-31.75-7.063-19.822-10.537-32.625-31.186-32.625-53.625v-259.062l178.375-177.812 205.313 206.125c12.797 12.842 19.183 30.718 17.438 48.75-1.79 18.054-11.613 34.388-26.625 44.5l-279.25 187.875c-9.318 6.275-20.013 9.756-30.875 10.313zM558.875 785.188l123.438-83.125-123.438-123.875v207zM409.562 434.062l-204.937-206.687c-23.625-23.804-23.492-62.227 0.313-85.875 23.804-23.603 61.897-23.452 85.5 0.375l145.187 146.75v-291.875c0-22.439 12.803-43.088 32.625-53.625 19.8-10.56 43.989-9.323 62.625 3.25l219.687 147.812-87.25 86.938-104.438-70.312v174.375l-149.313 148.875zM36.824 855.294l67.882 67.882 882.469-882.469-67.882-67.882-882.469 882.469z" />
<glyph unicode="&#xe94b;" glyph-name="bluetooth4" d="M599.714 447.988l219.607 220.502c12.797 12.842 19.151 30.74 17.406 48.772-1.79 18.054-11.566 34.364-26.578 44.476l-279.251 187.905c-18.636 12.551-42.865 13.781-62.665 3.222-19.822-10.537-32.596-31.165-32.596-53.604v-291.892l-145.174 146.762c-23.625 23.804-61.703 23.961-85.507 0.358-23.804-23.625-23.983-62.083-0.358-85.887l218.801-220.613-218.801-220.591c-23.625-23.804-23.446-62.262 0.358-85.91 23.804-23.603 61.904-23.469 85.507 0.358l145.174 146.762v-291.869c0-22.439 12.775-43.067 32.596-53.604 19.8-10.56 44.029-9.329 62.665 3.244l279.229 187.86c15.034 10.135 24.811 26.444 26.578 44.476 1.745 18.032-4.609 35.93-17.406 48.772l-219.584 220.502zM558.862 785.161l123.428-83.068-123.428-123.92v206.989zM558.862 110.814v206.989l123.428-123.92-123.428-83.068z" />
<glyph unicode="&#xe94c;" glyph-name="boat" d="M407.011 828.257h83.258v-45.965h-83.258v45.965zM533.724 828.257h83.258v-45.965h-83.258v45.965zM895.404 132.631c-12.752-6.469-21.966-11.146-43.154-11.146-21.011 0-30.25 4.6-42.835 10.987v170.729l71.157 205.825c3.036 8.778 2.381 18.415-1.81 26.705s-11.561 14.528-20.433 17.286l-75.944 23.638v166.018c0 14.358-11.641 25.999-25.999 25.999h-26.664l-25.317 109.416c-2.728 11.79-13.23 20.135-25.327 20.135h-74.701v36.961c0 13.704-11.111 24.815-24.815 24.815h-135.125c-13.704 0-24.815-11.111-24.815-24.815v-36.958h-74.708c-12.101 0-22.6-8.349-25.327-20.135l-25.317-109.416h-26.66c-14.358 0-25.999-11.641-25.999-25.999v-166.018l-75.944-23.638c-8.872-2.759-16.241-8.996-20.433-17.286s-4.843-17.927-1.807-26.705l71.157-205.825v-170.719c-12.6-6.393-21.835-10.997-42.86-10.997-21.177 0-30.388 4.673-43.133 11.142-15.483 7.857-34.756 17.636-70.288 17.636v-59.956c21.191 0 30.402-4.676 43.154-11.146 15.48-7.857 34.746-17.633 70.267-17.633 35.532 0 54.802 9.779 70.285 17.636 12.752 6.469 21.963 11.146 43.15 11.146 21.177 0 30.388-4.676 43.133-11.142 15.483-7.857 34.749-17.636 70.274-17.636 35.528 0 54.798 9.779 70.281 17.636 12.745 6.469 21.956 11.142 43.133 11.142 21.188 0 30.398-4.676 43.15-11.146 15.483-7.857 34.753-17.636 70.285-17.636 35.521 0 54.788 9.779 70.267 17.636 12.749 6.469 21.959 11.146 43.147 11.146 21.181 0 30.392-4.676 43.14-11.142 15.483-7.857 34.753-17.636 70.285-17.636 35.528 0 54.798 9.779 70.281 17.633 12.755 6.473 21.97 11.146 43.161 11.146v59.956c-35.535-0.007-54.809-9.782-70.292-17.64zM293.603 716.674h21.329c12.101 0 22.6 8.349 25.327 20.135l25.317 109.416h292.828l25.317-109.416c2.728-11.79 13.23-20.135 25.327-20.135h21.336v-123.837l-208.192 64.798c-6.646 2.070-13.759 2.070-20.405 0l-208.189-64.798v123.837zM742.643 320.183c-1.246-3.607-1.883-7.397-1.883-11.215v-144.329l-457.513-0.003v144.329c0 3.818-0.637 7.608-1.883 11.215l-61.472 177.808 292.118 90.922 292.118-90.922zM852.25-4.044c-21.188 0-30.402 4.676-43.15 11.146-15.483 7.861-34.749 17.64-70.274 17.64-35.532 0-54.802-9.782-70.285-17.64-12.745-6.469-21.956-11.146-43.13-11.146-21.188 0-30.402 4.676-43.15 11.146-15.483 7.861-34.753 17.64-70.281 17.64-35.521 0-54.791-9.779-70.271-17.64-12.749-6.473-21.959-11.146-43.143-11.146-21.181 0-30.388 4.676-43.133 11.146-15.483 7.857-34.749 17.64-70.271 17.64-35.528 0-54.798-9.779-70.281-17.64-12.752-6.473-21.963-11.146-43.15-11.146-21.177 0-30.385 4.676-43.13 11.146-15.487 7.861-34.756 17.64-70.288 17.64v-59.956c21.188 0 30.402-4.676 43.15-11.149 15.48-7.857 34.746-17.636 70.267-17.636 35.532 0 54.802 9.782 70.285 17.64 12.752 6.473 21.963 11.146 43.147 11.146 21.177 0 30.385-4.676 43.133-11.146 15.483-7.861 34.746-17.64 70.274-17.64 35.532 0 54.798 9.782 70.281 17.64 12.745 6.469 21.956 11.146 43.13 11.146 21.184 0 30.398-4.676 43.147-11.146 15.483-7.857 34.753-17.64 70.285-17.64 35.521 0 54.788 9.779 70.271 17.64 12.749 6.473 21.959 11.146 43.147 11.146 21.181 0 30.392-4.676 43.14-11.146 15.483-7.861 34.753-17.64 70.288-17.64 35.532 0 54.802 9.779 70.285 17.636 12.752 6.473 21.966 11.149 43.157 11.149v59.956c-35.535 0-54.805-9.779-70.292-17.64-12.759-6.469-21.973-11.146-43.157-11.146z" />
<glyph unicode="&#xe94d;" glyph-name="boat1" d="M407.011 828.257h83.258v-45.965h-83.258v45.965zM533.724 828.257h83.258v-45.965h-83.258v45.965zM895.404 132.631c-12.752-6.469-21.966-11.146-43.154-11.146-21.011 0-30.25 4.6-42.835 10.987v170.729l71.157 205.825c3.036 8.778 2.381 18.415-1.81 26.705s-11.561 14.528-20.433 17.286l-75.944 23.638v166.018c0 14.358-11.641 25.999-25.999 25.999h-26.664l-25.317 109.416c-2.728 11.79-13.23 20.135-25.327 20.135h-74.701v36.961c0 13.704-11.111 24.815-24.815 24.815h-135.125c-13.704 0-24.815-11.111-24.815-24.815v-36.958h-74.708c-12.101 0-22.6-8.349-25.327-20.135l-25.317-109.416h-26.66c-14.358 0-25.999-11.641-25.999-25.999v-166.018l-75.944-23.638c-8.872-2.759-16.241-8.996-20.433-17.286s-4.843-17.927-1.807-26.705l71.157-205.825v-170.719c-12.6-6.393-21.835-10.997-42.86-10.997-21.177 0-30.388 4.673-43.133 11.142-15.483 7.857-34.756 17.636-70.288 17.636v-59.956c21.191 0 30.402-4.676 43.154-11.146 15.48-7.857 34.746-17.633 70.267-17.633 35.532 0 54.802 9.779 70.285 17.636 12.752 6.469 21.963 11.146 43.15 11.146 21.177 0 30.388-4.676 43.133-11.142 15.483-7.857 34.749-17.636 70.274-17.636 35.528 0 54.798 9.779 70.281 17.636 12.745 6.469 21.956 11.142 43.133 11.142 21.188 0 30.398-4.676 43.15-11.146 15.483-7.857 34.753-17.636 70.285-17.636 35.521 0 54.788 9.779 70.267 17.636 12.749 6.469 21.959 11.146 43.147 11.146 21.181 0 30.392-4.676 43.14-11.142 15.483-7.857 34.753-17.636 70.285-17.636 35.528 0 54.798 9.779 70.281 17.633 12.755 6.473 21.97 11.146 43.161 11.146v59.956c-35.535-0.007-54.809-9.782-70.292-17.64zM293.603 716.674h21.329c12.101 0 22.6 8.349 25.327 20.135l25.317 109.416h292.828l25.317-109.416c2.728-11.79 13.23-20.135 25.327-20.135h21.336v-123.837l-208.192 64.798c-6.646 2.070-13.759 2.070-20.405 0l-208.189-64.798v123.837zM852.25-4.044c-21.188 0-30.402 4.676-43.15 11.146-15.483 7.861-34.749 17.64-70.274 17.64-35.532 0-54.802-9.782-70.285-17.64-12.745-6.469-21.956-11.146-43.13-11.146-21.188 0-30.402 4.676-43.15 11.146-15.483 7.861-34.753 17.64-70.281 17.64-35.521 0-54.791-9.779-70.271-17.64-12.749-6.473-21.959-11.146-43.143-11.146-21.181 0-30.388 4.676-43.133 11.146-15.483 7.857-34.749 17.64-70.271 17.64-35.528 0-54.798-9.779-70.281-17.64-12.752-6.473-21.963-11.146-43.15-11.146-21.177 0-30.385 4.676-43.13 11.146-15.487 7.861-34.756 17.64-70.288 17.64v-59.956c21.188 0 30.402-4.676 43.15-11.149 15.48-7.857 34.746-17.636 70.267-17.636 35.532 0 54.802 9.782 70.285 17.64 12.752 6.473 21.963 11.146 43.147 11.146 21.177 0 30.385-4.676 43.133-11.146 15.483-7.861 34.746-17.64 70.274-17.64 35.532 0 54.798 9.782 70.281 17.64 12.745 6.469 21.956 11.146 43.13 11.146 21.184 0 30.398-4.676 43.147-11.146 15.483-7.857 34.753-17.64 70.285-17.64 35.521 0 54.788 9.779 70.271 17.64 12.749 6.473 21.959 11.146 43.147 11.146 21.181 0 30.392-4.676 43.14-11.146 15.483-7.861 34.753-17.64 70.288-17.64 35.532 0 54.802 9.779 70.285 17.636 12.752 6.473 21.966 11.149 43.157 11.149v59.956c-35.535 0-54.805-9.779-70.292-17.64-12.759-6.469-21.973-11.146-43.157-11.146z" />
</font>
</defs>
</svg>
